<?xml version="1.0" encoding="UTF-8" standalone="no"?>
<svg
   xmlns:dc="http://purl.org/dc/elements/1.1/"
   xmlns:cc="http://creativecommons.org/ns#"
   xmlns:rdf="http://www.w3.org/1999/02/22-rdf-syntax-ns#"
   xmlns:svg="http://www.w3.org/2000/svg"
   xmlns="http://www.w3.org/2000/svg"
   xmlns:sodipodi="http://sodipodi.sourceforge.net/DTD/sodipodi-0.dtd"
   xmlns:inkscape="http://www.inkscape.org/namespaces/inkscape"
   version="1.1"
   height="80"
   width="80"
   id="svg3224"
   inkscape:version="0.48.1 r9760"
   sodipodi:docname="icon_tc.svg">
  <metadata
     id="metadata3281">
    <rdf:RDF>
      <cc:Work
         rdf:about="">
        <dc:title></dc:title>
      </cc:Work>
    </rdf:RDF>
  </metadata>
  <sodipodi:namedview
     pagecolor="#ffffff"
     bordercolor="#666666"
     borderopacity="1"
     objecttolerance="10"
     gridtolerance="10"
     guidetolerance="10"
     inkscape:pageopacity="0"
     inkscape:pageshadow="2"
     inkscape:window-width="1070"
     inkscape:window-height="688"
     id="namedview3279"
     showgrid="false"
     inkscape:zoom="3.275"
     inkscape:cx="0.15267176"
     inkscape:cy="40"
     inkscape:window-x="118"
     inkscape:window-y="101"
     inkscape:window-maximized="0"
     inkscape:current-layer="svg3224" />
  <defs
     id="defs3226">
    <linearGradient
       id="hicg_overlay_grad"
       gradientUnits="userSpaceOnUse"
       x1="39.9995"
       y1="5.1816"
       x2="39.9995"
       y2="58.8019">
      <stop
         offset="0"
         style="stop-color:#FFFFFF"
         id="stop3229" />
      <stop
         offset="1"
         style="stop-color:#000000"
         id="stop3231" />
    </linearGradient>
    <filter
       id="hicg_drop_shadow">
      <feOffset
         in="SourceAlpha"
         dx="0"
         dy="4"
         id="feOffset3234" />
      <feGaussianBlur
         stdDeviation="4"
         id="feGaussianBlur3236" />
      <feColorMatrix
         type="matrix"
         values="1 0 0 0 0  0 1 0 0 0  0 0 1 0 0  0 0 0 0.5 0"
         result="shadow"
         id="feColorMatrix3238" />
      <feBlend
         in="SourceGraphic"
         in2="shadow"
         mode="normal"
         id="feBlend3240" />
    </filter>
    <clipPath
       id="clipPath3096"
       clipPathUnits="userSpaceOnUse">
      <path
         id="path3098"
         d="m 127.902,115.75 c -1.211,0 -2.41,0.008 -3.609,0.023 -8.172,6.067 -18.254,9.622 -29.0078,9.622 -1.4219,0 -2.8555,-0.063 -4.293,-0.188 -2.2422,-0.199 -3.8984,-2.172 -3.707,-4.414 0.0859,-0.961 0.4961,-1.816 1.1171,-2.465 -7.0546,0.926 -13.8085,2.059 -20.2421,3.344 l 0,16.898 -17.3164,0 c -1.4688,0 -2.7774,0.934 -3.2422,2.328 -0.4688,1.395 0.0039,2.926 1.1718,3.817 l 82.2696,62.433 c 0.609,0.465 1.34,0.696 2.066,0.696 0.774,0 1.547,-0.262 2.176,-0.781 l 75.883,-62.434 c 1.121,-0.914 1.543,-2.434 1.051,-3.793 -0.489,-1.359 -1.778,-2.266 -3.219,-2.266 l -18.574,0 0,-16.316 c -14.903,-3.121 -29.297,-4.992 -43.059,-5.879 -2.906,3.797 -6.25,7.301 -10,10.449 -11.914,9.996 -26.648,15.336 -42.0193,15.336 -1.9297,0 -3.8711,-0.086 -5.8164,-0.254 -2.2422,-0.199 -3.9024,-2.179 -3.7071,-4.418 0.1875,-2.121 1.961,-3.722 4.0547,-3.722 0.1211,0 0.2422,0.004 0.3672,0.015 1.7031,0.149 3.4023,0.223 5.0977,0.223 13.4492,0 26.3552,-4.676 36.7812,-13.43 1.758,-1.476 3.414,-3.039 4.965,-4.683 -3.094,-0.094 -6.164,-0.141 -9.188,-0.141" />
    </clipPath>
    <clipPath
       id="clipPath3084"
       clipPathUnits="userSpaceOnUse">
      <path
         id="path3086"
         d="m 124.293,115.773 c -12.648,0.149 -24.6524,1.086 -35.8907,2.555 -0.621,0.649 -1.0312,1.504 -1.1171,2.465 -0.1914,2.242 1.4648,4.215 3.707,4.414 1.4375,0.125 2.8711,0.188 4.293,0.188 10.7538,0 20.8358,-3.555 29.0078,-9.622 m 12.797,0.118 c -1.551,1.644 -3.207,3.207 -4.965,4.683 -10.426,8.754 -23.332,13.43 -36.7812,13.43 -1.6954,0 -3.3946,-0.074 -5.0977,-0.223 -0.125,-0.011 -0.2461,-0.015 -0.3672,-0.015 -2.0937,0 -3.8672,1.601 -4.0547,3.722 -0.1953,2.239 1.4649,4.219 3.7071,4.418 1.9453,0.168 3.8867,0.254 5.8164,0.254 15.3713,0 30.1053,-5.34 42.0193,-15.336 3.75,-3.148 7.094,-6.652 10,-10.449 -3.469,-0.223 -6.887,-0.383 -10.277,-0.484 m -68.9298,5.781 C 36.7461,127.945 13.0352,137.801 0,144.102 l 0,86.652 c 0,16.066 13.0195,29.09 29.0898,29.09 l 201.6602,0 c 16.066,0 29.094,-13.024 29.094,-29.09 l 0,-85.418 c -24.035,-11.047 -47.285,-18.445 -69.418,-23.082 l 0,16.316 18.574,0 c 1.441,0 2.73,0.907 3.219,2.266 0.492,1.359 0.07,2.879 -1.051,3.793 l -75.883,62.434 c -0.629,0.519 -1.402,0.781 -2.176,0.781 -0.726,0 -1.457,-0.231 -2.066,-0.696 L 48.7734,144.715 c -1.1679,-0.891 -1.6406,-2.422 -1.1718,-3.817 0.4648,-1.394 1.7734,-2.328 3.2422,-2.328 l 17.3164,0 0,-16.898" />
    </clipPath>
    <clipPath
       id="clipPath3074"
       clipPathUnits="userSpaceOnUse">
      <path
         id="path3076"
         d="M 0,259.844 0,0 l 259.844,0 0,259.844 -259.844,0 z" />
    </clipPath>
    <linearGradient
       id="linearGradient3062"
       spreadMethod="pad"
       gradientTransform="matrix(0,62.362,62.362,0,31.181,0)"
       gradientUnits="userSpaceOnUse"
       y2="0"
       x2="1"
       y1="0"
       x1="0">
      <stop
         id="stop3064"
         offset="0"
         style="stop-opacity:1;stop-color:#8ebedd" />
      <stop
         id="stop3066"
         offset="1"
         style="stop-opacity:1;stop-color:#275a9c" />
    </linearGradient>
    <clipPath
       id="clipPath3058"
       clipPathUnits="userSpaceOnUse">
      <path
         id="path3060"
         d="M 230.75,0 29.0898,0 C 13.0195,0 0,13.0234 0,29.0898 L 0,230.754 c 0,16.066 13.0195,29.09 29.0898,29.09 l 201.6602,0 c 16.066,0 29.094,-13.024 29.094,-29.09 l 0,0 c 0,16.066 -13.028,29.09 -29.094,29.09 l -201.6602,0 C 13.0195,259.844 0,246.82 0,230.754 l 0,-86.652 c 13.0352,-6.301 36.7461,-16.157 68.1602,-22.43 l 0,-66.2501 c 0,-1.8906 1.5351,-3.418 3.4257,-3.418 l 115.4181,0 c 1.891,0 3.422,1.5274 3.422,3.418 l 0,66.8321 c 22.133,4.637 45.383,12.035 69.418,23.082 l 0,-116.2462 C 259.844,13.0234 246.816,0 230.75,0 M 95.2344,64.2539 c -6.8242,0 -12.3555,5.5313 -12.3555,12.3516 0,6.8281 5.5313,12.3633 12.3555,12.3633 6.8286,0 12.3596,-5.5352 12.3596,-12.3633 0,-6.8203 -5.531,-12.3516 -12.3596,-12.3516 m 61.2346,2.9336 -0.356,0.0156 c -2.242,0.1953 -3.902,2.168 -3.707,4.4141 0.293,3.3164 0.293,6.6875 0,10.0078 -1.133,12.9805 -6.508,24.926 -15.316,34.266 3.39,0.101 6.808,0.261 10.277,0.484 7.488,-9.773 12.063,-21.4844 13.16,-34.043 0.328,-3.7929 0.328,-7.6367 0,-11.4257 -0.187,-2.125 -1.964,-3.7188 -4.058,-3.7188 m -16.692,1.4609 -0.363,0.0118 c -2.238,0.2031 -3.898,2.1757 -3.703,4.414 0.207,2.3516 0.207,4.7383 0,7.086 -1.844,21.1128 -19.625,37.0818 -40.4337,37.0818 -1.1835,0 -2.375,-0.051 -3.5742,-0.156 -0.1211,-0.012 -0.2383,-0.016 -0.3554,-0.016 -1.1446,0 -2.1954,0.477 -2.9454,1.258 11.2383,-1.469 23.2427,-2.406 35.8907,-2.555 10.809,-8.031 18.273,-20.4644 19.539,-34.9019 0.246,-2.8242 0.246,-5.6836 0,-8.5039 -0.184,-2.1172 -1.965,-3.7188 -4.055,-3.7188 m -16.781,1.4688 -0.355,0.0156 c -2.243,0.1992 -3.903,2.1719 -3.707,4.4141 0.121,1.3711 0.121,2.7734 0,4.1445 -1.079,12.3711 -11.5,21.7146 -23.6957,21.7146 -0.6836,0 -1.3711,-0.027 -2.0664,-0.09 -0.125,-0.011 -0.25,-0.015 -0.375,-0.015 -2.0821,0 -3.8555,1.601 -4.0391,3.715 -0.1953,2.242 1.461,4.214 3.7031,4.414 0.9414,0.082 1.875,0.125 2.8047,0.125 16.3554,0 30.3364,-12.5511 31.7934,-29.1527 0.164,-1.8476 0.164,-3.7226 0,-5.5664 -0.188,-2.125 -1.969,-3.7187 -4.063,-3.7187" />
    </clipPath>
  </defs>
  <g
     id="g3242">
    <path
       id="hicg_background"
       fill="#275a9c"
       d="M79,40c0,28.893-10.105,39-39,39S1,68.893,1,40C1,11.106,11.105,1,40,1S79,11.106,79,40z" />
    <path
       id="hicg_highlight"
       fill="#fff"
       opacity="0.25"
       d="M39.999,1C11.105,1,1,11.106,1,40c0,28.893,10.105,39,38.999,39   C68.896,79,79,68.893,79,40C79,11.106,68.896,1,39.999,1z M39.999,78.025C11.57,78.025,1.976,68.43,1.976,40   c0-28.429,9.595-38.024,38.023-38.024c28.43,0,38.024,9.596,38.024,38.024C78.023,68.43,68.429,78.025,39.999,78.025z" />
    <path
       id="hicg_overlay"
       opacity="0.4"
       fill="url(#hicg_overlay_grad)"
       d="M78.977,40c0,28.893-10.1,39-38.977,39S1.023,68.893,1.023,40c0-28.894,10.1-39,38.977-39S78.977,11.106,78.977,40z" />
  </g>
  <g
     transform="matrix(1.25,0,0,-1.25,76.443165,64.625843)"
     inkscape:label="icon_TelldusCenter"
     id="g3050">
    <g
       transform="scale(0.24,0.24)"
       id="g3052">
      <g
         id="g3070"
         transform="translate(-251.3995,-47.83715)">
        <g
           clip-path="url(#clipPath3074)"
           id="g3072">
          <path
             id="path3078"
             style="fill:#ffffff;fill-opacity:1;fill-rule:nonzero;stroke:none"
             d="m 160.527,70.9063 c -0.187,-2.125 -1.964,-3.7188 -4.058,-3.7188 l -0.356,0.0156 c -2.242,0.1953 -3.902,2.168 -3.707,4.4141 0.293,3.3164 0.293,6.6875 0,10.0078 -1.332,15.2656 -8.535,29.102 -20.281,38.949 -11.738,9.856 -26.613,14.543 -41.8789,13.207 -2.25,-0.199 -4.2227,1.465 -4.4219,3.707 -0.1953,2.239 1.4649,4.219 3.7071,4.418 17.4377,1.52 34.4257,-3.832 47.8357,-15.082 13.41,-11.258 21.637,-27.0545 23.16,-44.492 0.328,-3.7929 0.328,-7.6367 0,-11.4257 m -16.695,1.4609 c -0.184,-2.1172 -1.965,-3.7188 -4.055,-3.7188 l -0.363,0.0118 c -2.238,0.2031 -3.898,2.1757 -3.703,4.414 0.207,2.3516 0.207,4.7383 0,7.086 -1.949,22.3128 -21.695,38.8788 -44.0079,36.9258 -2.2383,-0.195 -4.2226,1.465 -4.4179,3.707 -0.1914,2.242 1.4648,4.215 3.707,4.414 26.7848,2.348 50.4958,-17.543 52.8398,-44.3359 0.246,-2.8242 0.246,-5.6836 0,-8.5039 m -16.773,1.4687 c -0.188,-2.125 -1.969,-3.7187 -4.063,-3.7187 l -0.355,0.0156 c -2.243,0.1992 -3.903,2.1719 -3.707,4.4141 0.121,1.3711 0.121,2.7734 0,4.1445 -1.141,13.0664 -12.7,22.7536 -25.7621,21.6246 -2.2383,-0.207 -4.2188,1.457 -4.4141,3.7 -0.1953,2.242 1.461,4.214 3.7031,4.414 17.5311,1.535 33.0591,-11.4847 34.5981,-29.0277 0.164,-1.8476 0.164,-3.7226 0,-5.5664 m -31.8246,-9.582 c -6.8242,0 -12.3555,5.5313 -12.3555,12.3516 0,6.8281 5.5313,12.3633 12.3555,12.3633 6.8286,0 12.3596,-5.5352 12.3596,-12.3633 0,-6.8203 -5.531,-12.3516 -12.3596,-12.3516 m 115.9336,80.3751 -75.883,62.434 c -1.219,1.007 -2.98,1.042 -4.242,0.085 L 48.7734,144.715 c -1.1679,-0.891 -1.6406,-2.422 -1.1718,-3.817 0.4648,-1.394 1.7734,-2.328 3.2422,-2.328 l 17.3164,0 0,-83.1481 c 0,-1.8906 1.5351,-3.418 3.4257,-3.418 l 115.4181,0 c 1.891,0 3.422,1.5274 3.422,3.418 l 0,83.1481 18.574,0 c 1.441,0 2.73,0.907 3.219,2.266 0.492,1.359 0.07,2.879 -1.051,3.793"
             inkscape:connector-curvature="0" />
        </g>
      </g>
    </g>
  </g>
</svg>
