<?xml version="1.0" encoding="utf-8"?>
<!-- Generator: Adobe Illustrator 16.0.0, SVG Export Plug-In . SVG Version: 6.00 Build 0)  -->
<!DOCTYPE svg PUBLIC "-//W3C//DTD SVG 1.1//EN" "http://www.w3.org/Graphics/SVG/1.1/DTD/svg11.dtd">
<svg version="1.1" id="TelldusZNetLite" xmlns="http://www.w3.org/2000/svg" xmlns:xlink="http://www.w3.org/1999/xlink" x="0px"
	 y="0px" width="1024px" height="1024px" viewBox="0 0 1024 1024" enable-background="new 0 0 1024 1024" xml:space="preserve">
<path fill="#834C6A" stroke="#834C6A" stroke-width="0.8841" stroke-miterlimit="10" d="M87.651,725.344h-6.848l-6.771-0.471v-0.129
	c0.271-3.576,3.254-6.377,6.912-6.377c3.58,0.076,6.496,2.863,6.705,6.508l-3.98,0.208v-4.059c2.112,0,3.838,1.597,3.98,3.852
	l-3.98,0.208v-4.058h78.998v4.058h-3.98c0.063-2.396,1.854-4.058,3.98-4.058v4.058h-3.98v-27.492c0-49.989,0-61.684,0-96.738
	c0-32.068-3.048-58.289-5.51-92.953c-2.452-34.986-6.302-70.248-6.302-92.822V189.834c0.064-3.723-0.998-8.039-2.53-9.493
	c-2.515-2.659-9.091-9.039-21.175-9.103c-12.086,0.066-18.661,6.446-21.113,9.103c-1.593,1.454-2.592,5.772-2.528,9.493v225.239
	c0,22.577-3.917,57.836-6.367,92.824l-6.78-0.467"/>
<path fill="#834C6A" stroke="#834C6A" stroke-width="0.8841" stroke-miterlimit="10" d="M86.378,507.431l-6.836-0.531
	c2.528-35.184,6.381-70.638,6.302-91.826V189.834c0.142-5.317,0.74-12.618,6.185-18.726c3.451-3.916,13.81-13.473,31.136-13.473
	c17.39,0,27.687,9.557,31.136,13.473c5.447,6.107,6.109,13.409,6.173,18.726v225.239c0,21.188,3.851,56.646,6.315,91.826
	c2.386,34.325,5.576,60.947,5.576,93.949c0,35.052,0,46.751,0,96.739v27.491c-0.065,5.436-4.447,9.625-9.699,9.625H83.669
	c-5.124,0-9.364-3.982-9.637-9.167l6.77-0.326l6.848,0.468v0.128c-0.273,3.655-3.385,6.443-7.043,6.305
	c-3.72-0.13-6.574-3.115-6.574-6.772v-27.752c0-49.991,0-61.688,0-96.739c0-33.003,3.125-59.623,5.509-93.951L86.378,507.431
	l6.782,0.467"/>
<path fill="#834C6A" stroke="#834C6A" stroke-width="0.8841" stroke-miterlimit="10" d="M85.055,734.773h6.833H85.055"/>
<path fill="#834C6A" stroke="#834C6A" stroke-width="0.8841" stroke-miterlimit="10" d="M87.909,757.949"/>
<path fill="#834C6A" stroke="#834C6A" stroke-width="0.8841" stroke-miterlimit="10" d="M85.055,734.773v-6.769h76.226
	c1.789,0,3.512,0.727,4.849,1.996c1.258,1.257,1.984,3.047,1.984,4.772v27.027c0,5.253-4.11,9.764-9.687,9.83H87.909
	c-5.51-0.066-9.622-4.576-9.622-9.83v-27.027c0-1.723,0.661-3.514,1.983-4.772c1.271-1.272,2.995-1.996,4.786-1.996L85.055,734.773
	h6.834"/>
<path fill="#834C6A" stroke="#834C6A" stroke-width="0.8841" stroke-miterlimit="10" d="M194.184,767.238l-2.722-6.316l1.192-0.531
	l2.722-0.532h36.711l2.723,0.532l1.271,0.531l2.192,1.594c0.193,0.133,1.515,1.532,3.046,3.658c0.727,1.062,1.531,2.322,2.192,3.789
	c0.66,1.517,1.322,3.253,1.322,5.639c0,2.389-0.663,4.178-1.322,5.642c-2.062,4.383-4.979,7.174-5.24,7.507l-2.19,1.519
	l-1.207,0.531l-2.789,0.594h-36.711l-2.723-0.594l-1.256-0.531l-2.128-1.519c-0.195-0.142-1.53-1.596-3.048-3.721
	c-0.738-1.066-1.531-2.257-2.191-3.786c-0.674-1.462-1.336-3.253-1.401-5.642c0.063-2.386,0.726-4.122,1.401-5.641
	c2.051-4.387,4.98-7.172,5.239-7.445l2.192-1.594L194.184,767.238l4.914,4.706l-0.063,0.065l-1.933,2.464l-0.727,1.322l-0.126,0.271
	l-1.726-0.466h1.791l-0.063,0.466l-1.726-0.466h1.79h-1.596l1.53-0.402l0.063,0.402h-1.595l1.531-0.402l1.451,2.464l1,1.258
	l0.335,0.325l0.063,0.078l-4.914,4.707l2.722-6.241l1.195,0.534l-2.724,6.239v-6.835h36.711v6.835l-2.71-6.239l1.258-0.534
	l2.722,6.241l-4.915-4.707l0.067-0.145l1.918-2.449l0.739-1.325l0.063-0.206l1.79,0.402h-1.79v-0.402l1.79,0.402h-1.79h1.596
	l-1.596,0.466v-0.466h1.596l-1.596,0.466l-1.402-2.529l-1.062-1.191l-0.259-0.401h-0.063l4.915-4.706l-2.722,6.237l-1.193-0.532
	l2.645-6.301v6.83h-36.711v-6.83l2.723,6.301l-1.258,0.532L194.184,767.238l4.914,4.706L194.184,767.238"/>
<path fill="#834C6A" stroke="#834C6A" stroke-width="0.8841" stroke-miterlimit="10" d="M238.728,759.106l0.144,0.063l0.195,0.064
	l-1.919,6.512v-6.771h19.581c1.724,0,3.448,0.665,4.641,1.857l0.805,0.735c1.321,1.264,2.127,3.051,2.127,4.906v59.754
	c0,1.867-0.806,3.669-2.127,4.913l-0.739,0.74c-1.258,1.196-2.983,1.857-4.706,1.857h-18.662l-0.39,0.127l-1.933-6.494l4.111,5.435
	l-1.129,0.803c-2.983,2.256-7.3,1.659-9.555-1.336c-2.257-2.985-1.661-7.303,1.335-9.558l1.128-0.79l2.192-1.129l1.387-0.4
	l1.935-0.273h19.58v6.848l-4.721-4.979l0.804-0.739l4.644,4.979h-6.835v-59.756h6.834l-4.643,4.98l-0.804-0.727l4.72-4.979v6.851
	h-19.578l-1.935-0.276l-1.387-0.4l-2.192-1.129l-1.128-0.79c-2.996-2.261-3.593-6.574-1.336-9.558
	C231.431,757.445,235.746,756.849,238.728,759.106"/>
<path fill="#834C6A" stroke="#834C6A" stroke-width="0.8841" stroke-miterlimit="10" d="M194.184,808.681l-2.722-6.237l1.192-0.534
	l2.722-0.593h36.711l2.79,0.593l1.207,0.534l2.192,1.518c0.194,0.14,1.515,1.594,3.047,3.654c0.726,1.062,1.53,2.32,2.19,3.852
	c0.662,1.465,1.322,3.253,1.322,5.642c0,2.388-0.662,4.122-1.322,5.645c-2.062,4.316-4.979,7.17-5.239,7.506l-2.191,1.453
	l-1.207,0.609l-2.789,0.531h-36.712l-2.723-0.531l-1.257-0.609l-2.127-1.453c-0.195-0.208-1.53-1.594-3.048-3.722
	c-0.739-1.063-1.53-2.32-2.19-3.786c-0.674-1.519-1.336-3.255-1.4-5.643c0.063-2.387,0.727-4.175,1.4-5.642
	c2.049-4.384,4.98-7.172,5.238-7.509l2.191-1.515L194.184,808.681l4.914,4.706l-0.129,0.144l-1.868,2.452l-0.727,1.322l-0.126,0.207
	l-1.726-0.403h1.79l-0.063,0.403l-1.726-0.403h1.791h-1.596l1.53-0.468l0.063,0.468h-1.595l1.531-0.468l1.451,2.467l0.999,1.256
	l0.335,0.336l0.063,0.065l-4.914,4.706l2.722-6.237l1.258,0.533l-2.786,6.307v-6.838h36.711v6.838l-2.71-6.307l1.258-0.533
	l2.722,6.237l-4.915-4.706l0.068-0.065l1.918-2.462l0.739-1.326l0.063-0.27l1.792,0.468h-1.792v-0.468l1.79,0.468h-1.79h1.596
	l-1.596,0.401v-0.401h1.596l-1.596,0.401l-1.402-2.466l-1.062-1.244l-0.259-0.349l-0.065-0.065l4.915-4.705l-2.722,6.237
	l-1.194-0.532l2.646-6.237v6.832h-36.711v-6.832l2.721,6.237l-1.258,0.532L194.184,808.681l4.914,4.706L194.184,808.681"/>
<path fill="#834C6A" stroke="#834C6A" stroke-width="0.8841" stroke-miterlimit="10" d="M98.334,764.264l-5.978-3.254
	c1.269-2.527,3.525-3.783,4.98-4.315c1.595-0.534,2.659-0.534,3.125-0.6h45.543c2.788,0,5.045,1.323,6.174,2.452
	c1.205,1.062,1.724,1.996,1.931,2.463c4.514,8.431,5.175,18.389,5.238,29.204c-0.063,10.828-0.725,20.788-5.174,29.218
	c-0.274,0.465-0.792,1.397-1.997,2.461c-1.126,1.065-3.386,2.453-6.172,2.388h-45.543c-0.467,0-1.531,0-3.125-0.532
	c-1.451-0.47-3.708-1.787-4.979-4.256c-4.515-8.49-5.176-18.45-5.24-29.275c0.063-10.816,0.726-20.78,5.24-29.207l11.955,6.5
	c-2.527,4.443-3.655,12.683-3.591,22.706c-0.064,10.036,1.063,18.259,3.591,22.782l-3.85,2.051l1.465-4.175
	c0.597,0.193,1.789,0.92,2.385,2.124l-3.85,2.052l1.465-4.176l-1.465,4.176v-4.383l1.465,0.208l-1.465,4.175v-4.382h45.542v4.382
	l-2.917-3.252c0.401-0.456,1.593-1.198,2.917-1.131v4.383l-2.917-3.253l2.917,3.253l-3.851-2.052l0.933-1.204l2.917,3.256
	l-3.851-2.052c2.527-4.526,3.657-12.747,3.591-22.782c0.066-10.023-1.063-18.261-3.591-22.706l3.851-2.116l-2.917,3.245
	l-0.933-1.126l3.851-2.119l-2.917,3.245l2.917-3.245v4.384c-1.325,0-2.516-0.676-2.917-1.141l2.917-3.243v4.384h-45.542v-4.384
	l1.465,4.178l-1.465,0.207v-4.384l1.465,4.178l-1.465-4.178l3.85,2.116c-0.596,1.203-1.723,1.862-2.385,2.061l-1.465-4.178
	l3.85,2.119L98.334,764.264"/>
<rect x="268.729" y="512.546" fill="none" stroke="#834C6A" stroke-width="44.2073" stroke-linecap="round" stroke-linejoin="round" stroke-miterlimit="10" width="681.239" height="378.454"/>
<path fill="#834C6A" stroke="#834C6A" stroke-width="22.9878" stroke-linecap="round" stroke-linejoin="round" stroke-miterlimit="10" d="
	M949.929,702.79c-0.453,61.981-50.809,112.095-112.884,112.095H457.923c-31.958,0-57.854,16.853-57.854,37.646
	c0,20.788,25.895,37.637,57.854,37.637h379.122v0.832h112.923V702.79H949.929z"/>
<rect x="98.59" y="768.204" fill="#834C6A" stroke="#834C6A" stroke-width="0.8841" stroke-miterlimit="10" width="93.431" height="46.779"/>
<rect x="149.91" y="810.974" fill="#834C6A" stroke="#834C6A" stroke-width="0.8841" stroke-miterlimit="10" width="58.777" height="10.528"/>
<rect x="192.654" y="759.211" fill="#834C6A" stroke="#834C6A" stroke-width="0.9045" stroke-miterlimit="10" width="70.186" height="61.752"/>
<rect x="756.256" y="66.768" fill="#834C6A" stroke="#834C6A" stroke-miterlimit="10" width="85.484" height="274.783"/>
<rect x="661.608" y="161.416" fill="#834C6A" stroke="#834C6A" stroke-miterlimit="10" width="274.782" height="85.486"/>
</svg>
