<?xml version="1.0" encoding="utf-8"?>
<!-- Generator: Adobe Illustrator 16.0.0, SVG Export Plug-In . SVG Version: 6.00 Build 0)  -->
<!DOCTYPE svg PUBLIC "-//W3C//DTD SVG 1.1//EN" "http://www.w3.org/Graphics/SVG/1.1/DTD/svg11.dtd">
<svg version="1.1" id="TelldusZNetLite" xmlns="http://www.w3.org/2000/svg" xmlns:xlink="http://www.w3.org/1999/xlink" x="0px"
	 y="0px" width="1024px" height="1024px" viewBox="0 0 1024 1024" enable-background="new 0 0 1024 1024" xml:space="preserve">
<g>
	<path fill="#834C6A" d="M542.669,693.757L542.669,693.757L542.669,693.757v113.199c16.239,4.778,31.198,13.879,42.898,26.021
		c11.699,11.459,20.579,25.556,25.578,41.816h346.95c16.901,0,30.539,13.2,30.539,30.521c0,16.698-13.638,30.357-30.539,30.357
		H612.009c-5.001,17.12-13.86,32.478-26.441,44.419c-18.62,19.279-44.639,30.76-73.677,30.76c-28.6,0-55.02-11.48-73.658-30.76
		c-12.14-11.941-21.239-27.299-26.459-44.419H65.704c-16.9,0-30.338-13.659-30.338-30.357c0-17.321,13.441-30.521,30.338-30.521
		h346.971c5.179-16.26,14.28-30.357,25.559-41.816c11.9-12.142,26.639-21.242,43.098-26.021V693.757 M559.567,858.532
		L559.567,858.532c-12.139-12.138-28.598-19.74-47.677-19.74c-18.641,0-35.518,7.603-47.658,19.74
		c-12.141,12.359-19.939,29.04-19.939,47.879c0,18.86,7.799,35.76,19.939,47.878c12.141,12.14,29.018,19.72,47.658,19.72
		c19.079,0,35.538-7.58,47.677-19.72c12.561-12.118,19.94-29.018,19.94-47.878C579.508,887.572,572.128,870.892,559.567,858.532
		L559.567,858.532z"/>
	<path fill="#834C6A" stroke="#834C6A" stroke-width="0.8841" stroke-miterlimit="10" d="M63.79,524.473h-6.168l-6.098-0.424v-0.116
		c0.244-3.221,2.931-5.744,6.225-5.744c3.224,0.069,5.851,2.58,6.039,5.862l-3.585,0.187v-3.655c1.902,0,3.457,1.438,3.585,3.469
		l-3.585,0.187v-3.655h71.152v3.655h-3.585c0.057-2.159,1.67-3.655,3.585-3.655v3.655h-3.585v-24.761c0-45.025,0-55.558,0-87.131
		c0-28.883-2.745-52.5-4.963-83.72c-2.208-31.512-5.676-63.271-5.676-83.603V42.152c0.058-3.353-0.899-7.241-2.279-8.55
		c-2.265-2.395-8.188-8.141-19.072-8.199c-10.886,0.06-16.808,5.806-19.016,8.199c-1.435,1.309-2.335,5.199-2.277,8.55v202.867
		c0,20.335-3.528,52.093-5.735,83.605l-6.107-0.421"/>
	<path fill="#834C6A" stroke="#834C6A" stroke-width="0.8841" stroke-miterlimit="10" d="M62.644,328.203l-6.157-0.479
		c2.277-31.688,5.747-63.62,5.676-82.705V42.152c0.128-4.789,0.667-11.365,5.571-16.866c3.108-3.527,12.438-12.135,28.044-12.135
		c15.662,0,24.937,8.608,28.043,12.135c4.906,5.5,5.502,12.077,5.56,16.866v202.867c0,19.085,3.468,51.02,5.688,82.705
		c2.149,30.917,5.022,54.895,5.022,84.619c0,31.57,0,42.107,0,87.131v24.76c-0.059,4.896-4.006,8.669-8.736,8.669H60.204
		c-4.615,0-8.434-3.587-8.68-8.256l6.097-0.294l6.168,0.421v0.116c-0.246,3.292-3.049,5.803-6.343,5.678
		c-3.351-0.117-5.921-2.805-5.921-6.099v-24.996c0-45.026,0-55.561,0-87.131c0-29.725,2.815-53.702,4.962-84.62L62.644,328.203
		l6.108,0.421"/>
	<path fill="#834C6A" stroke="#834C6A" stroke-width="0.8841" stroke-miterlimit="10" d="M61.452,532.966h6.155H61.452"/>
	<path fill="#834C6A" stroke="#834C6A" stroke-width="0.8841" stroke-miterlimit="10" d="M64.022,553.84"/>
	<path fill="#834C6A" stroke="#834C6A" stroke-width="0.8841" stroke-miterlimit="10" d="M61.452,532.966v-6.096h68.655
		c1.611,0,3.163,0.654,4.367,1.798c1.133,1.132,1.787,2.744,1.787,4.298v24.343c0,4.731-3.702,8.794-8.725,8.854H64.022
		c-4.963-0.06-8.666-4.122-8.666-8.854v-24.343c0-1.552,0.595-3.164,1.786-4.298c1.145-1.146,2.698-1.798,4.311-1.798
		L61.452,532.966h6.156"/>
	<path fill="#834C6A" stroke="#834C6A" stroke-width="0.8841" stroke-miterlimit="10" d="M159.742,562.206l-2.452-5.688l1.074-0.479
		l2.452-0.479h33.065l2.452,0.479l1.145,0.479l1.974,1.435c0.174,0.119,1.365,1.38,2.744,3.295c0.654,0.956,1.378,2.091,1.974,3.412
		c0.594,1.366,1.191,2.93,1.191,5.079c0,2.152-0.597,3.763-1.191,5.081c-1.857,3.948-4.485,6.461-4.72,6.761l-1.973,1.368
		l-1.087,0.479l-2.512,0.535h-33.065l-2.452-0.535l-1.132-0.479l-1.917-1.368c-0.176-0.127-1.378-1.436-2.745-3.35
		c-0.665-0.961-1.379-2.034-1.973-3.411c-0.607-1.316-1.204-2.929-1.262-5.081c0.057-2.149,0.654-3.713,1.262-5.081
		c1.847-3.95,4.485-6.459,4.718-6.705l1.974-1.435L159.742,562.206l4.426,4.239l-0.057,0.059l-1.741,2.219l-0.654,1.191
		l-0.114,0.244l-1.554-0.419h1.612l-0.057,0.419l-1.554-0.419h1.612h-1.437l1.378-0.362l0.057,0.362h-1.437l1.379-0.362l1.307,2.219
		l0.9,1.133l0.302,0.292l0.057,0.071l-4.426,4.239l2.452-5.621l1.076,0.481l-2.453,5.619v-6.156h33.065v6.156l-2.441-5.619
		l1.133-0.481l2.452,5.621l-4.427-4.239l0.06-0.13l1.728-2.206l0.666-1.193l0.057-0.186l1.612,0.362h-1.612v-0.362l1.612,0.362
		h-1.612h1.437l-1.437,0.419v-0.419h1.437l-1.437,0.419l-1.263-2.277l-0.956-1.073l-0.233-0.362H190.6l4.427-4.239l-2.452,5.618
		l-1.074-0.479l2.382-5.675v6.151h-33.065v-6.151l2.452,5.675l-1.133,0.479L159.742,562.206l4.426,4.239L159.742,562.206"/>
	<path fill="#834C6A" stroke="#834C6A" stroke-width="0.8841" stroke-miterlimit="10" d="M199.862,554.882l0.129,0.057l0.176,0.058
		l-1.729,5.865v-6.098h17.636c1.553,0,3.106,0.598,4.18,1.673l0.725,0.662c1.19,1.138,1.916,2.748,1.916,4.419v53.819
		c0,1.682-0.726,3.305-1.916,4.425l-0.666,0.667c-1.133,1.077-2.687,1.673-4.239,1.673h-16.808l-0.351,0.114l-1.741-5.85
		l3.703,4.896l-1.017,0.722c-2.687,2.033-6.575,1.495-8.606-1.203c-2.033-2.688-1.496-6.577,1.202-8.608l1.016-0.712l1.975-1.017
		l1.249-0.36l1.742-0.246h17.635v6.167l-4.252-4.483l0.724-0.667l4.183,4.485h-6.156V561.52h6.155l-4.182,4.485l-0.724-0.654
		l4.251-4.485v6.17h-17.634l-1.742-0.249l-1.249-0.36l-1.975-1.017l-1.016-0.712c-2.698-2.036-3.236-5.921-1.203-8.608
		C193.289,553.386,197.176,552.849,199.862,554.882"/>
	<path fill="#834C6A" stroke="#834C6A" stroke-width="0.8841" stroke-miterlimit="10" d="M159.742,599.532l-2.452-5.617l1.074-0.481
		l2.452-0.535h33.065l2.512,0.535l1.087,0.481l1.974,1.366c0.175,0.126,1.365,1.436,2.744,3.292c0.654,0.956,1.378,2.09,1.973,3.469
		c0.596,1.319,1.191,2.93,1.191,5.081c0,2.15-0.597,3.713-1.191,5.084c-1.857,3.888-4.485,6.458-4.719,6.761l-1.973,1.308
		l-1.087,0.549l-2.511,0.479h-33.066l-2.452-0.479l-1.132-0.549l-1.916-1.308c-0.176-0.188-1.378-1.436-2.745-3.353
		c-0.665-0.958-1.378-2.09-1.973-3.41c-0.607-1.367-1.203-2.932-1.261-5.082c0.057-2.149,0.654-3.76,1.261-5.081
		c1.846-3.948,4.486-6.46,4.718-6.763l1.974-1.364L159.742,599.532l4.426,4.239l-0.116,0.129l-1.683,2.209l-0.654,1.191
		l-0.114,0.186l-1.554-0.363h1.612l-0.057,0.363l-1.554-0.363h1.612h-1.437l1.378-0.421l0.057,0.421h-1.437l1.379-0.421l1.307,2.222
		l0.9,1.131l0.302,0.303l0.057,0.058l-4.426,4.239l2.452-5.618l1.133,0.481l-2.509,5.679v-6.158h33.065v6.158l-2.441-5.679
		l1.133-0.481l2.452,5.618l-4.427-4.239l0.061-0.058l1.728-2.218l0.666-1.195l0.057-0.242l1.613,0.421h-1.614v-0.421l1.612,0.421
		h-1.612h1.437l-1.437,0.361v-0.361h1.437l-1.437,0.361l-1.263-2.22l-0.956-1.12l-0.233-0.315l-0.059-0.058l4.427-4.239
		l-2.452,5.618l-1.075-0.479l2.383-5.618v6.154h-33.065v-6.154l2.451,5.618l-1.133,0.479L159.742,599.532l4.426,4.239
		L159.742,599.532"/>
	<path fill="#834C6A" stroke="#834C6A" stroke-width="0.8841" stroke-miterlimit="10" d="M73.412,559.527l-5.384-2.93
		c1.143-2.277,3.175-3.408,4.485-3.887c1.436-0.481,2.395-0.481,2.815-0.54h41.02c2.511,0,4.544,1.191,5.561,2.208
		c1.085,0.956,1.553,1.798,1.739,2.219c4.066,7.592,4.661,16.562,4.718,26.303c-0.057,9.752-0.653,18.723-4.66,26.316
		c-0.247,0.419-0.714,1.259-1.799,2.217c-1.014,0.959-3.049,2.209-5.559,2.15H75.328c-0.421,0-1.379,0-2.815-0.479
		c-1.307-0.423-3.34-1.61-4.484-3.833c-4.066-7.648-4.662-16.619-4.72-26.369c0.057-9.742,0.654-18.715,4.72-26.305l10.768,5.854
		c-2.276,4.002-3.292,11.423-3.235,20.45c-0.058,9.04,0.958,16.446,3.235,20.52l-3.468,1.848l1.32-3.761
		c0.537,0.175,1.611,0.829,2.148,1.913l-3.468,1.848l1.32-3.761l-1.32,3.761v-3.948l1.32,0.188l-1.32,3.761v-3.948h41.019v3.948
		l-2.628-2.93c0.362-0.41,1.435-1.079,2.628-1.019v3.948l-2.628-2.93l2.628,2.93l-3.468-1.848l0.84-1.084l2.628,2.932l-3.468-1.848
		c2.276-4.076,3.294-11.481,3.235-20.52c0.059-9.027-0.958-16.446-3.235-20.45l3.468-1.906l-2.628,2.923l-0.84-1.015l3.468-1.908
		l-2.628,2.923l2.628-2.923v3.948c-1.193,0-2.266-0.608-2.628-1.027l2.628-2.921v3.948H75.329v-3.948l1.32,3.763l-1.32,0.186v-3.948
		l1.32,3.763l-1.32-3.763l3.468,1.906c-0.537,1.083-1.552,1.677-2.148,1.856l-1.32-3.763l3.468,1.908L73.412,559.527"/>
	
		<rect x="226.883" y="332.811" fill="none" stroke="#834C6A" stroke-width="44.2073" stroke-linecap="round" stroke-linejoin="round" stroke-miterlimit="10" width="613.577" height="340.865"/>
	
		<path fill="#834C6A" stroke="#834C6A" stroke-width="22.9878" stroke-linecap="round" stroke-linejoin="round" stroke-miterlimit="10" d="
		M840.425,504.159c-0.408,55.825-45.762,100.961-101.672,100.961H397.286c-28.784,0-52.108,15.179-52.108,33.907
		c0,18.723,23.323,33.899,52.108,33.899h341.467v0.749H840.46V504.159H840.425z"/>
	
		<rect x="73.643" y="563.076" fill="#834C6A" stroke="#834C6A" stroke-width="0.8841" stroke-miterlimit="10" width="84.151" height="42.133"/>
	
		<rect x="119.865" y="601.598" fill="#834C6A" stroke="#834C6A" stroke-width="0.8841" stroke-miterlimit="10" width="52.939" height="9.482"/>
	
		<rect x="158.364" y="554.977" fill="#834C6A" stroke="#834C6A" stroke-width="0.9045" stroke-miterlimit="10" width="63.214" height="55.618"/>
</g>
</svg>
