<?xml version="1.0" encoding="utf-8"?>
<!-- Generator: Adobe Illustrator 14.0.0, SVG Export Plug-In . SVG Version: 6.00 Build 43363)  -->
<!DOCTYPE svg PUBLIC "-//W3C//DTD SVG 1.0//EN" "http://www.w3.org/TR/2001/REC-SVG-20010904/DTD/svg10.dtd">
<svg version="1.0" xmlns="http://www.w3.org/2000/svg" xmlns:xlink="http://www.w3.org/1999/xlink" x="0px" y="0px" width="212.6px"
	 height="212.6px" viewBox="0 0 212.6 212.6" enable-background="new 0 0 212.6 212.6" xml:space="preserve">
<g id="bg" display="none">
	<rect display="inline" fill="#006199" width="212.6" height="212.6"/>
</g>
<g id="default_x5F_1">
	<path fill="#E7E7E7" d="M123.043,61.061l14.101,8.2c0.395,0.229,0.826,0.339,1.254,0.339c0.816,0,1.613-0.399,2.092-1.127
		l16.5-25.099c0.377-0.574,0.502-1.278,0.344-1.947c-0.157-0.668-0.583-1.243-1.177-1.588l-17.2-10
		c-0.598-0.348-1.312-0.432-1.974-0.234c-0.662,0.198-1.212,0.662-1.521,1.28l-13.4,26.9
		C121.475,58.965,121.903,60.398,123.043,61.061z"/>
	<path fill="#E7E7E7" d="M143.432,75.545l8.101,14.1c0.46,0.802,1.301,1.255,2.17,1.255c0.377,0,0.76-0.086,1.119-0.266l26.9-13.5
		c0.615-0.31,1.077-0.86,1.273-1.521c0.197-0.661,0.112-1.374-0.234-1.97l-10-17.2c-0.346-0.596-0.923-1.022-1.594-1.178
		c-0.67-0.157-1.377-0.029-1.95,0.352l-25,16.6C143.118,72.946,142.775,74.402,143.432,75.545z"/>
	<path fill="#E7E7E7" d="M140.386,144.121c-0.729-1.101-2.188-1.445-3.331-0.789l-14.101,8.1c-1.148,0.66-1.583,2.101-0.99,3.286
		l13.5,27c0.309,0.617,0.859,1.08,1.521,1.277c0.234,0.07,0.476,0.104,0.716,0.104c0.437,0,0.871-0.114,1.256-0.339l17.2-10
		c0.595-0.346,1.021-0.922,1.178-1.592s0.03-1.375-0.349-1.948L140.386,144.121z"/>
	<path fill="#E7E7E7" d="M188.011,94.477c-0.504-0.473-1.177-0.72-1.869-0.672l-30,1.9c-1.316,0.083-2.342,1.176-2.342,2.495v16.2
		c0,1.32,1.025,2.412,2.342,2.496l30,1.899c0.053,0.003,0.105,0.005,0.158,0.005c0.634,0,1.246-0.24,1.711-0.678
		c0.504-0.473,0.789-1.132,0.789-1.822v-20C188.8,95.609,188.515,94.95,188.011,94.477z"/>
	<path fill="#E7E7E7" d="M181.714,135.462l-26.899-13.4c-1.185-0.59-2.624-0.154-3.282,0.993l-8.101,14.101
		c-0.656,1.143-0.313,2.598,0.785,3.327l25,16.601c0.413,0.274,0.896,0.417,1.383,0.417c0.19,0,0.382-0.022,0.571-0.065
		c0.671-0.158,1.248-0.586,1.594-1.184l10-17.301c0.345-0.597,0.428-1.311,0.229-1.971
		C182.795,136.319,182.332,135.77,181.714,135.462z"/>
	<path fill="#E7E7E7" d="M69.168,137.055l-8.1-14.101c-0.66-1.149-2.103-1.584-3.29-0.988l-26.9,13.5
		c-0.615,0.309-1.076,0.857-1.273,1.518c-0.197,0.659-0.114,1.371,0.23,1.967l10,17.301c0.346,0.599,0.924,1.027,1.597,1.184
		c0.188,0.044,0.378,0.065,0.567,0.065c0.49,0,0.974-0.144,1.389-0.421l25-16.701C69.482,139.647,69.823,138.194,69.168,137.055z"/>
	<path fill="#E7E7E7" d="M114.399,153.8H98.2c-1.319,0-2.412,1.025-2.495,2.342l-1.9,30c-0.043,0.689,0.2,1.365,0.672,1.869
		s1.132,0.789,1.823,0.789h20c0.69,0,1.35-0.285,1.822-0.789s0.717-1.18,0.673-1.869l-1.899-30
		C116.812,154.825,115.72,153.8,114.399,153.8z"/>
	<path fill="#E7E7E7" d="M89.545,151.432l-14.1-8.1c-1.146-0.657-2.608-0.31-3.334,0.795l-16.5,25.099
		c-0.377,0.574-0.502,1.279-0.345,1.947c0.158,0.668,0.583,1.242,1.177,1.588l17.2,10c0.385,0.225,0.819,0.339,1.256,0.339
		c0.241,0,0.483-0.035,0.719-0.105c0.662-0.199,1.213-0.663,1.52-1.283l13.4-27C91.127,153.526,90.691,152.091,89.545,151.432z"/>
	<path fill="#E7E7E7" d="M58.8,114.399V98.2c0-1.319-1.025-2.412-2.342-2.495l-30-1.9c-0.701-0.047-1.366,0.2-1.869,0.672
		C24.085,94.95,23.8,95.609,23.8,96.3v20c0,0.69,0.286,1.35,0.789,1.822c0.465,0.438,1.077,0.678,1.711,0.678
		c0.052,0,0.105-0.002,0.158-0.005l30-1.899C57.774,116.812,58.8,115.72,58.8,114.399z"/>
	<path fill="#E7E7E7" d="M30.885,77.138l26.9,13.4c0.357,0.178,0.738,0.263,1.113,0.263c0.864,0,1.701-0.449,2.163-1.244l8.2-14.1
		c0.667-1.147,0.321-2.617-0.788-3.346l-25.099-16.5c-0.575-0.378-1.279-0.502-1.947-0.345c-0.668,0.158-1.243,0.583-1.588,1.177
		l-10,17.2c-0.348,0.597-0.432,1.312-0.234,1.974S30.267,76.83,30.885,77.138z"/>
</g>
<g id="default_x5F_2" display="none">
	<path display="inline" fill="#E7E7E7" d="M143.432,75.545l8.101,14.1c0.46,0.802,1.301,1.255,2.17,1.255
		c0.377,0,0.76-0.086,1.119-0.266l26.9-13.5c0.615-0.31,1.077-0.86,1.273-1.521c0.197-0.661,0.112-1.374-0.234-1.97l-10-17.2
		c-0.346-0.596-0.923-1.022-1.594-1.178c-0.67-0.157-1.377-0.029-1.95,0.352l-25,16.6C143.118,72.946,142.775,74.402,143.432,75.545
		z"/>
	<path display="inline" fill="#E7E7E7" d="M140.386,144.121c-0.729-1.101-2.188-1.445-3.331-0.789l-14.101,8.1
		c-1.148,0.66-1.583,2.101-0.99,3.286l13.5,27c0.309,0.617,0.859,1.08,1.521,1.277c0.234,0.07,0.476,0.104,0.716,0.104
		c0.437,0,0.871-0.114,1.256-0.339l17.2-10c0.595-0.346,1.021-0.922,1.178-1.592s0.03-1.375-0.349-1.948L140.386,144.121z"/>
	<path display="inline" fill="#E7E7E7" d="M188.011,94.477c-0.504-0.473-1.177-0.72-1.869-0.672l-30,1.9
		c-1.316,0.083-2.342,1.176-2.342,2.495v16.2c0,1.32,1.025,2.412,2.342,2.496l30,1.899c0.053,0.003,0.105,0.005,0.158,0.005
		c0.634,0,1.246-0.24,1.711-0.678c0.504-0.473,0.789-1.132,0.789-1.822v-20C188.8,95.609,188.515,94.95,188.011,94.477z"/>
	<path display="inline" fill="#E7E7E7" d="M181.714,135.462l-26.899-13.4c-1.185-0.59-2.624-0.154-3.282,0.993l-8.101,14.101
		c-0.656,1.143-0.313,2.598,0.785,3.327l25,16.601c0.413,0.274,0.896,0.417,1.383,0.417c0.19,0,0.382-0.022,0.571-0.065
		c0.671-0.158,1.248-0.586,1.594-1.184l10-17.301c0.345-0.597,0.428-1.311,0.229-1.971
		C182.795,136.319,182.332,135.77,181.714,135.462z"/>
	<path display="inline" fill="#E7E7E7" d="M69.168,137.055l-8.1-14.101c-0.66-1.149-2.103-1.584-3.29-0.988l-26.9,13.5
		c-0.615,0.309-1.076,0.857-1.273,1.518c-0.197,0.659-0.114,1.371,0.23,1.967l10,17.301c0.346,0.599,0.924,1.027,1.597,1.184
		c0.188,0.044,0.378,0.065,0.567,0.065c0.49,0,0.974-0.144,1.389-0.421l25-16.701C69.482,139.647,69.823,138.194,69.168,137.055z"/>
	<path display="inline" fill="#E7E7E7" d="M114.399,153.8H98.2c-1.319,0-2.412,1.025-2.495,2.342l-1.9,30
		c-0.043,0.689,0.2,1.365,0.672,1.869s1.132,0.789,1.823,0.789h20c0.69,0,1.35-0.285,1.822-0.789s0.717-1.18,0.673-1.869l-1.899-30
		C116.812,154.825,115.72,153.8,114.399,153.8z"/>
	<path display="inline" fill="#E7E7E7" d="M89.545,151.432l-14.1-8.1c-1.146-0.657-2.608-0.31-3.334,0.795l-16.5,25.099
		c-0.377,0.574-0.502,1.279-0.345,1.947c0.158,0.668,0.583,1.242,1.177,1.588l17.2,10c0.385,0.225,0.819,0.339,1.256,0.339
		c0.241,0,0.483-0.035,0.719-0.105c0.662-0.199,1.213-0.663,1.52-1.283l13.4-27C91.127,153.526,90.691,152.091,89.545,151.432z"/>
	<path display="inline" fill="#E7E7E7" d="M77.134,30.878c-0.31-0.616-0.86-1.078-1.521-1.274c-0.66-0.197-1.374-0.112-1.97,0.235
		l-17.2,10c-0.595,0.346-1.021,0.921-1.178,1.591s-0.031,1.375,0.349,1.949l16.6,25.1c0.479,0.725,1.274,1.122,2.087,1.122
		c0.428,0,0.86-0.11,1.255-0.339l14.1-8.2c1.142-0.664,1.57-2.102,0.978-3.283L77.134,30.878z"/>
	<path display="inline" fill="#E7E7E7" d="M58.8,114.399V98.2c0-1.319-1.025-2.412-2.342-2.495l-30-1.9
		c-0.701-0.047-1.366,0.2-1.869,0.672C24.085,94.95,23.8,95.609,23.8,96.3v20c0,0.69,0.286,1.35,0.789,1.822
		c0.465,0.438,1.077,0.678,1.711,0.678c0.052,0,0.105-0.002,0.158-0.005l30-1.899C57.774,116.812,58.8,115.72,58.8,114.399z"/>
	<path display="inline" fill="#E7E7E7" d="M30.885,77.138l26.9,13.4c0.357,0.178,0.738,0.263,1.113,0.263
		c0.864,0,1.701-0.449,2.163-1.244l8.2-14.1c0.667-1.147,0.321-2.617-0.788-3.346l-25.099-16.5
		c-0.575-0.378-1.279-0.502-1.947-0.345c-0.668,0.158-1.243,0.583-1.588,1.177l-10,17.2c-0.348,0.597-0.432,1.312-0.234,1.974
		S30.267,76.83,30.885,77.138z"/>
</g>
<g id="default_x5F_3" display="none">
	<path display="inline" fill="#E7E7E7" d="M116.3,23.8h-20c-0.69,0-1.35,0.286-1.823,0.789s-0.716,1.18-0.672,1.869l1.9,30
		C95.788,57.774,96.88,58.8,98.2,58.8h16.2c1.32,0,2.412-1.025,2.496-2.342l1.899-30c0.044-0.689-0.2-1.366-0.673-1.869
		S116.99,23.8,116.3,23.8z"/>
	<path display="inline" fill="#E7E7E7" d="M140.386,144.121c-0.729-1.101-2.188-1.445-3.331-0.789l-14.101,8.1
		c-1.148,0.66-1.583,2.101-0.99,3.286l13.5,27c0.309,0.617,0.859,1.08,1.521,1.277c0.234,0.07,0.476,0.104,0.716,0.104
		c0.437,0,0.871-0.114,1.256-0.339l17.2-10c0.595-0.346,1.021-0.922,1.178-1.592s0.03-1.375-0.349-1.948L140.386,144.121z"/>
	<path display="inline" fill="#E7E7E7" d="M188.011,94.477c-0.504-0.473-1.177-0.72-1.869-0.672l-30,1.9
		c-1.316,0.083-2.342,1.176-2.342,2.495v16.2c0,1.32,1.025,2.412,2.342,2.496l30,1.899c0.053,0.003,0.105,0.005,0.158,0.005
		c0.634,0,1.246-0.24,1.711-0.678c0.504-0.473,0.789-1.132,0.789-1.822v-20C188.8,95.609,188.515,94.95,188.011,94.477z"/>
	<path display="inline" fill="#E7E7E7" d="M181.714,135.462l-26.899-13.4c-1.185-0.59-2.624-0.154-3.282,0.993l-8.101,14.101
		c-0.656,1.143-0.313,2.598,0.785,3.327l25,16.601c0.413,0.274,0.896,0.417,1.383,0.417c0.19,0,0.382-0.022,0.571-0.065
		c0.671-0.158,1.248-0.586,1.594-1.184l10-17.301c0.345-0.597,0.428-1.311,0.229-1.971
		C182.795,136.319,182.332,135.77,181.714,135.462z"/>
	<path display="inline" fill="#E7E7E7" d="M69.168,137.055l-8.1-14.101c-0.66-1.149-2.103-1.584-3.29-0.988l-26.9,13.5
		c-0.615,0.309-1.076,0.857-1.273,1.518c-0.197,0.659-0.114,1.371,0.23,1.967l10,17.301c0.346,0.599,0.924,1.027,1.597,1.184
		c0.188,0.044,0.378,0.065,0.567,0.065c0.49,0,0.974-0.144,1.389-0.421l25-16.701C69.482,139.647,69.823,138.194,69.168,137.055z"/>
	<path display="inline" fill="#E7E7E7" d="M114.399,153.8H98.2c-1.319,0-2.412,1.025-2.495,2.342l-1.9,30
		c-0.043,0.689,0.2,1.365,0.672,1.869s1.132,0.789,1.823,0.789h20c0.69,0,1.35-0.285,1.822-0.789s0.717-1.18,0.673-1.869l-1.899-30
		C116.812,154.825,115.72,153.8,114.399,153.8z"/>
	<path display="inline" fill="#E7E7E7" d="M89.545,151.432l-14.1-8.1c-1.146-0.657-2.608-0.31-3.334,0.795l-16.5,25.099
		c-0.377,0.574-0.502,1.279-0.345,1.947c0.158,0.668,0.583,1.242,1.177,1.588l17.2,10c0.385,0.225,0.819,0.339,1.256,0.339
		c0.241,0,0.483-0.035,0.719-0.105c0.662-0.199,1.213-0.663,1.52-1.283l13.4-27C91.127,153.526,90.691,152.091,89.545,151.432z"/>
	<path display="inline" fill="#E7E7E7" d="M77.134,30.878c-0.31-0.616-0.86-1.078-1.521-1.274c-0.66-0.197-1.374-0.112-1.97,0.235
		l-17.2,10c-0.595,0.346-1.021,0.921-1.178,1.591s-0.031,1.375,0.349,1.949l16.6,25.1c0.479,0.725,1.274,1.122,2.087,1.122
		c0.428,0,0.86-0.11,1.255-0.339l14.1-8.2c1.142-0.664,1.57-2.102,0.978-3.283L77.134,30.878z"/>
	<path display="inline" fill="#E7E7E7" d="M58.8,114.399V98.2c0-1.319-1.025-2.412-2.342-2.495l-30-1.9
		c-0.701-0.047-1.366,0.2-1.869,0.672C24.085,94.95,23.8,95.609,23.8,96.3v20c0,0.69,0.286,1.35,0.789,1.822
		c0.465,0.438,1.077,0.678,1.711,0.678c0.052,0,0.105-0.002,0.158-0.005l30-1.899C57.774,116.812,58.8,115.72,58.8,114.399z"/>
	<path display="inline" fill="#E7E7E7" d="M30.885,77.138l26.9,13.4c0.357,0.178,0.738,0.263,1.113,0.263
		c0.864,0,1.701-0.449,2.163-1.244l8.2-14.1c0.667-1.147,0.321-2.617-0.788-3.346l-25.099-16.5
		c-0.575-0.378-1.279-0.502-1.947-0.345c-0.668,0.158-1.243,0.583-1.588,1.177l-10,17.2c-0.348,0.597-0.432,1.312-0.234,1.974
		S30.267,76.83,30.885,77.138z"/>
</g>
<g id="default_x5F_4" display="none">
	<path display="inline" fill="#E7E7E7" d="M116.3,23.8h-20c-0.69,0-1.35,0.286-1.823,0.789s-0.716,1.18-0.672,1.869l1.9,30
		C95.788,57.774,96.88,58.8,98.2,58.8h16.2c1.32,0,2.412-1.025,2.496-2.342l1.899-30c0.044-0.689-0.2-1.366-0.673-1.869
		S116.99,23.8,116.3,23.8z"/>
	<path display="inline" fill="#E7E7E7" d="M123.043,61.061l14.101,8.2c0.395,0.229,0.826,0.339,1.254,0.339
		c0.816,0,1.613-0.399,2.092-1.127l16.5-25.099c0.377-0.574,0.502-1.278,0.344-1.947c-0.157-0.668-0.583-1.243-1.177-1.588l-17.2-10
		c-0.598-0.348-1.312-0.432-1.974-0.234c-0.662,0.198-1.212,0.662-1.521,1.28l-13.4,26.9
		C121.475,58.965,121.903,60.398,123.043,61.061z"/>
	<path display="inline" fill="#E7E7E7" d="M140.386,144.121c-0.729-1.101-2.188-1.445-3.331-0.789l-14.101,8.1
		c-1.148,0.66-1.583,2.101-0.99,3.286l13.5,27c0.309,0.617,0.859,1.08,1.521,1.277c0.234,0.07,0.476,0.104,0.716,0.104
		c0.437,0,0.871-0.114,1.256-0.339l17.2-10c0.595-0.346,1.021-0.922,1.178-1.592s0.03-1.375-0.349-1.948L140.386,144.121z"/>
	<path display="inline" fill="#E7E7E7" d="M181.714,135.462l-26.899-13.4c-1.185-0.59-2.624-0.154-3.282,0.993l-8.101,14.101
		c-0.656,1.143-0.313,2.598,0.785,3.327l25,16.601c0.413,0.274,0.896,0.417,1.383,0.417c0.19,0,0.382-0.022,0.571-0.065
		c0.671-0.158,1.248-0.586,1.594-1.184l10-17.301c0.345-0.597,0.428-1.311,0.229-1.971
		C182.795,136.319,182.332,135.77,181.714,135.462z"/>
	<path display="inline" fill="#E7E7E7" d="M69.168,137.055l-8.1-14.101c-0.66-1.149-2.103-1.584-3.29-0.988l-26.9,13.5
		c-0.615,0.309-1.076,0.857-1.273,1.518c-0.197,0.659-0.114,1.371,0.23,1.967l10,17.301c0.346,0.599,0.924,1.027,1.597,1.184
		c0.188,0.044,0.378,0.065,0.567,0.065c0.49,0,0.974-0.144,1.389-0.421l25-16.701C69.482,139.647,69.823,138.194,69.168,137.055z"/>
	<path display="inline" fill="#E7E7E7" d="M114.399,153.8H98.2c-1.319,0-2.412,1.025-2.495,2.342l-1.9,30
		c-0.043,0.689,0.2,1.365,0.672,1.869s1.132,0.789,1.823,0.789h20c0.69,0,1.35-0.285,1.822-0.789s0.717-1.18,0.673-1.869l-1.899-30
		C116.812,154.825,115.72,153.8,114.399,153.8z"/>
	<path display="inline" fill="#E7E7E7" d="M89.545,151.432l-14.1-8.1c-1.146-0.657-2.608-0.31-3.334,0.795l-16.5,25.099
		c-0.377,0.574-0.502,1.279-0.345,1.947c0.158,0.668,0.583,1.242,1.177,1.588l17.2,10c0.385,0.225,0.819,0.339,1.256,0.339
		c0.241,0,0.483-0.035,0.719-0.105c0.662-0.199,1.213-0.663,1.52-1.283l13.4-27C91.127,153.526,90.691,152.091,89.545,151.432z"/>
	<path display="inline" fill="#E7E7E7" d="M77.134,30.878c-0.31-0.616-0.86-1.078-1.521-1.274c-0.66-0.197-1.374-0.112-1.97,0.235
		l-17.2,10c-0.595,0.346-1.021,0.921-1.178,1.591s-0.031,1.375,0.349,1.949l16.6,25.1c0.479,0.725,1.274,1.122,2.087,1.122
		c0.428,0,0.86-0.11,1.255-0.339l14.1-8.2c1.142-0.664,1.57-2.102,0.978-3.283L77.134,30.878z"/>
	<path display="inline" fill="#E7E7E7" d="M58.8,114.399V98.2c0-1.319-1.025-2.412-2.342-2.495l-30-1.9
		c-0.701-0.047-1.366,0.2-1.869,0.672C24.085,94.95,23.8,95.609,23.8,96.3v20c0,0.69,0.286,1.35,0.789,1.822
		c0.465,0.438,1.077,0.678,1.711,0.678c0.052,0,0.105-0.002,0.158-0.005l30-1.899C57.774,116.812,58.8,115.72,58.8,114.399z"/>
	<path display="inline" fill="#E7E7E7" d="M30.885,77.138l26.9,13.4c0.357,0.178,0.738,0.263,1.113,0.263
		c0.864,0,1.701-0.449,2.163-1.244l8.2-14.1c0.667-1.147,0.321-2.617-0.788-3.346l-25.099-16.5
		c-0.575-0.378-1.279-0.502-1.947-0.345c-0.668,0.158-1.243,0.583-1.588,1.177l-10,17.2c-0.348,0.597-0.432,1.312-0.234,1.974
		S30.267,76.83,30.885,77.138z"/>
</g>
<g id="default_x5F_5" display="none">
	<path display="inline" fill="#E7E7E7" d="M116.3,23.8h-20c-0.69,0-1.35,0.286-1.823,0.789s-0.716,1.18-0.672,1.869l1.9,30
		C95.788,57.774,96.88,58.8,98.2,58.8h16.2c1.32,0,2.412-1.025,2.496-2.342l1.899-30c0.044-0.689-0.2-1.366-0.673-1.869
		S116.99,23.8,116.3,23.8z"/>
	<path display="inline" fill="#E7E7E7" d="M123.043,61.061l14.101,8.2c0.395,0.229,0.826,0.339,1.254,0.339
		c0.816,0,1.613-0.399,2.092-1.127l16.5-25.099c0.377-0.574,0.502-1.278,0.344-1.947c-0.157-0.668-0.583-1.243-1.177-1.588l-17.2-10
		c-0.598-0.348-1.312-0.432-1.974-0.234c-0.662,0.198-1.212,0.662-1.521,1.28l-13.4,26.9
		C121.475,58.965,121.903,60.398,123.043,61.061z"/>
	<path display="inline" fill="#E7E7E7" d="M143.432,75.545l8.101,14.1c0.46,0.802,1.301,1.255,2.17,1.255
		c0.377,0,0.76-0.086,1.119-0.266l26.9-13.5c0.615-0.31,1.077-0.86,1.273-1.521c0.197-0.661,0.112-1.374-0.234-1.97l-10-17.2
		c-0.346-0.596-0.923-1.022-1.594-1.178c-0.67-0.157-1.377-0.029-1.95,0.352l-25,16.6C143.118,72.946,142.775,74.402,143.432,75.545
		z"/>
	<path display="inline" fill="#E7E7E7" d="M140.386,144.121c-0.729-1.101-2.188-1.445-3.331-0.789l-14.101,8.1
		c-1.148,0.66-1.583,2.101-0.99,3.286l13.5,27c0.309,0.617,0.859,1.08,1.521,1.277c0.234,0.07,0.476,0.104,0.716,0.104
		c0.437,0,0.871-0.114,1.256-0.339l17.2-10c0.595-0.346,1.021-0.922,1.178-1.592s0.03-1.375-0.349-1.948L140.386,144.121z"/>
	<path display="inline" fill="#E7E7E7" d="M69.168,137.055l-8.1-14.101c-0.66-1.149-2.103-1.584-3.29-0.988l-26.9,13.5
		c-0.615,0.309-1.076,0.857-1.273,1.518c-0.197,0.659-0.114,1.371,0.23,1.967l10,17.301c0.346,0.599,0.924,1.027,1.597,1.184
		c0.188,0.044,0.378,0.065,0.567,0.065c0.49,0,0.974-0.144,1.389-0.421l25-16.701C69.482,139.647,69.823,138.194,69.168,137.055z"/>
	<path display="inline" fill="#E7E7E7" d="M114.399,153.8H98.2c-1.319,0-2.412,1.025-2.495,2.342l-1.9,30
		c-0.043,0.689,0.2,1.365,0.672,1.869s1.132,0.789,1.823,0.789h20c0.69,0,1.35-0.285,1.822-0.789s0.717-1.18,0.673-1.869l-1.899-30
		C116.812,154.825,115.72,153.8,114.399,153.8z"/>
	<path display="inline" fill="#E7E7E7" d="M89.545,151.432l-14.1-8.1c-1.146-0.657-2.608-0.31-3.334,0.795l-16.5,25.099
		c-0.377,0.574-0.502,1.279-0.345,1.947c0.158,0.668,0.583,1.242,1.177,1.588l17.2,10c0.385,0.225,0.819,0.339,1.256,0.339
		c0.241,0,0.483-0.035,0.719-0.105c0.662-0.199,1.213-0.663,1.52-1.283l13.4-27C91.127,153.526,90.691,152.091,89.545,151.432z"/>
	<path display="inline" fill="#E7E7E7" d="M77.134,30.878c-0.31-0.616-0.86-1.078-1.521-1.274c-0.66-0.197-1.374-0.112-1.97,0.235
		l-17.2,10c-0.595,0.346-1.021,0.921-1.178,1.591s-0.031,1.375,0.349,1.949l16.6,25.1c0.479,0.725,1.274,1.122,2.087,1.122
		c0.428,0,0.86-0.11,1.255-0.339l14.1-8.2c1.142-0.664,1.57-2.102,0.978-3.283L77.134,30.878z"/>
	<path display="inline" fill="#E7E7E7" d="M58.8,114.399V98.2c0-1.319-1.025-2.412-2.342-2.495l-30-1.9
		c-0.701-0.047-1.366,0.2-1.869,0.672C24.085,94.95,23.8,95.609,23.8,96.3v20c0,0.69,0.286,1.35,0.789,1.822
		c0.465,0.438,1.077,0.678,1.711,0.678c0.052,0,0.105-0.002,0.158-0.005l30-1.899C57.774,116.812,58.8,115.72,58.8,114.399z"/>
	<path display="inline" fill="#E7E7E7" d="M30.885,77.138l26.9,13.4c0.357,0.178,0.738,0.263,1.113,0.263
		c0.864,0,1.701-0.449,2.163-1.244l8.2-14.1c0.667-1.147,0.321-2.617-0.788-3.346l-25.099-16.5
		c-0.575-0.378-1.279-0.502-1.947-0.345c-0.668,0.158-1.243,0.583-1.588,1.177l-10,17.2c-0.348,0.597-0.432,1.312-0.234,1.974
		S30.267,76.83,30.885,77.138z"/>
</g>
<g id="default_x5F_6" display="none">
	<path display="inline" fill="#E7E7E7" d="M116.3,23.8h-20c-0.69,0-1.35,0.286-1.823,0.789s-0.716,1.18-0.672,1.869l1.9,30
		C95.788,57.774,96.88,58.8,98.2,58.8h16.2c1.32,0,2.412-1.025,2.496-2.342l1.899-30c0.044-0.689-0.2-1.366-0.673-1.869
		S116.99,23.8,116.3,23.8z"/>
	<path display="inline" fill="#E7E7E7" d="M123.043,61.061l14.101,8.2c0.395,0.229,0.826,0.339,1.254,0.339
		c0.816,0,1.613-0.399,2.092-1.127l16.5-25.099c0.377-0.574,0.502-1.278,0.344-1.947c-0.157-0.668-0.583-1.243-1.177-1.588l-17.2-10
		c-0.598-0.348-1.312-0.432-1.974-0.234c-0.662,0.198-1.212,0.662-1.521,1.28l-13.4,26.9
		C121.475,58.965,121.903,60.398,123.043,61.061z"/>
	<path display="inline" fill="#E7E7E7" d="M143.432,75.545l8.101,14.1c0.46,0.802,1.301,1.255,2.17,1.255
		c0.377,0,0.76-0.086,1.119-0.266l26.9-13.5c0.615-0.31,1.077-0.86,1.273-1.521c0.197-0.661,0.112-1.374-0.234-1.97l-10-17.2
		c-0.346-0.596-0.923-1.022-1.594-1.178c-0.67-0.157-1.377-0.029-1.95,0.352l-25,16.6C143.118,72.946,142.775,74.402,143.432,75.545
		z"/>
	<path display="inline" fill="#E7E7E7" d="M188.011,94.477c-0.504-0.473-1.177-0.72-1.869-0.672l-30,1.9
		c-1.316,0.083-2.342,1.176-2.342,2.495v16.2c0,1.32,1.025,2.412,2.342,2.496l30,1.899c0.053,0.003,0.105,0.005,0.158,0.005
		c0.634,0,1.246-0.24,1.711-0.678c0.504-0.473,0.789-1.132,0.789-1.822v-20C188.8,95.609,188.515,94.95,188.011,94.477z"/>
	<path display="inline" fill="#E7E7E7" d="M69.168,137.055l-8.1-14.101c-0.66-1.149-2.103-1.584-3.29-0.988l-26.9,13.5
		c-0.615,0.309-1.076,0.857-1.273,1.518c-0.197,0.659-0.114,1.371,0.23,1.967l10,17.301c0.346,0.599,0.924,1.027,1.597,1.184
		c0.188,0.044,0.378,0.065,0.567,0.065c0.49,0,0.974-0.144,1.389-0.421l25-16.701C69.482,139.647,69.823,138.194,69.168,137.055z"/>
	<path display="inline" fill="#E7E7E7" d="M114.399,153.8H98.2c-1.319,0-2.412,1.025-2.495,2.342l-1.9,30
		c-0.043,0.689,0.2,1.365,0.672,1.869s1.132,0.789,1.823,0.789h20c0.69,0,1.35-0.285,1.822-0.789s0.717-1.18,0.673-1.869l-1.899-30
		C116.812,154.825,115.72,153.8,114.399,153.8z"/>
	<path display="inline" fill="#E7E7E7" d="M89.545,151.432l-14.1-8.1c-1.146-0.657-2.608-0.31-3.334,0.795l-16.5,25.099
		c-0.377,0.574-0.502,1.279-0.345,1.947c0.158,0.668,0.583,1.242,1.177,1.588l17.2,10c0.385,0.225,0.819,0.339,1.256,0.339
		c0.241,0,0.483-0.035,0.719-0.105c0.662-0.199,1.213-0.663,1.52-1.283l13.4-27C91.127,153.526,90.691,152.091,89.545,151.432z"/>
	<path display="inline" fill="#E7E7E7" d="M77.134,30.878c-0.31-0.616-0.86-1.078-1.521-1.274c-0.66-0.197-1.374-0.112-1.97,0.235
		l-17.2,10c-0.595,0.346-1.021,0.921-1.178,1.591s-0.031,1.375,0.349,1.949l16.6,25.1c0.479,0.725,1.274,1.122,2.087,1.122
		c0.428,0,0.86-0.11,1.255-0.339l14.1-8.2c1.142-0.664,1.57-2.102,0.978-3.283L77.134,30.878z"/>
	<path display="inline" fill="#E7E7E7" d="M58.8,114.399V98.2c0-1.319-1.025-2.412-2.342-2.495l-30-1.9
		c-0.701-0.047-1.366,0.2-1.869,0.672C24.085,94.95,23.8,95.609,23.8,96.3v20c0,0.69,0.286,1.35,0.789,1.822
		c0.465,0.438,1.077,0.678,1.711,0.678c0.052,0,0.105-0.002,0.158-0.005l30-1.899C57.774,116.812,58.8,115.72,58.8,114.399z"/>
	<path display="inline" fill="#E7E7E7" d="M30.885,77.138l26.9,13.4c0.357,0.178,0.738,0.263,1.113,0.263
		c0.864,0,1.701-0.449,2.163-1.244l8.2-14.1c0.667-1.147,0.321-2.617-0.788-3.346l-25.099-16.5
		c-0.575-0.378-1.279-0.502-1.947-0.345c-0.668,0.158-1.243,0.583-1.588,1.177l-10,17.2c-0.348,0.597-0.432,1.312-0.234,1.974
		S30.267,76.83,30.885,77.138z"/>
</g>
<g id="default_x5F_7" display="none">
	<path display="inline" fill="#E7E7E7" d="M116.3,23.8h-20c-0.69,0-1.35,0.286-1.823,0.789s-0.716,1.18-0.672,1.869l1.9,30
		C95.788,57.774,96.88,58.8,98.2,58.8h16.2c1.32,0,2.412-1.025,2.496-2.342l1.899-30c0.044-0.689-0.2-1.366-0.673-1.869
		S116.99,23.8,116.3,23.8z"/>
	<path display="inline" fill="#E7E7E7" d="M123.043,61.061l14.101,8.2c0.395,0.229,0.826,0.339,1.254,0.339
		c0.816,0,1.613-0.399,2.092-1.127l16.5-25.099c0.377-0.574,0.502-1.278,0.344-1.947c-0.157-0.668-0.583-1.243-1.177-1.588l-17.2-10
		c-0.598-0.348-1.312-0.432-1.974-0.234c-0.662,0.198-1.212,0.662-1.521,1.28l-13.4,26.9
		C121.475,58.965,121.903,60.398,123.043,61.061z"/>
	<path display="inline" fill="#E7E7E7" d="M143.432,75.545l8.101,14.1c0.46,0.802,1.301,1.255,2.17,1.255
		c0.377,0,0.76-0.086,1.119-0.266l26.9-13.5c0.615-0.31,1.077-0.86,1.273-1.521c0.197-0.661,0.112-1.374-0.234-1.97l-10-17.2
		c-0.346-0.596-0.923-1.022-1.594-1.178c-0.67-0.157-1.377-0.029-1.95,0.352l-25,16.6C143.118,72.946,142.775,74.402,143.432,75.545
		z"/>
	<path display="inline" fill="#E7E7E7" d="M188.011,94.477c-0.504-0.473-1.177-0.72-1.869-0.672l-30,1.9
		c-1.316,0.083-2.342,1.176-2.342,2.495v16.2c0,1.32,1.025,2.412,2.342,2.496l30,1.899c0.053,0.003,0.105,0.005,0.158,0.005
		c0.634,0,1.246-0.24,1.711-0.678c0.504-0.473,0.789-1.132,0.789-1.822v-20C188.8,95.609,188.515,94.95,188.011,94.477z"/>
	<path display="inline" fill="#E7E7E7" d="M181.714,135.462l-26.899-13.4c-1.185-0.59-2.624-0.154-3.282,0.993l-8.101,14.101
		c-0.656,1.143-0.313,2.598,0.785,3.327l25,16.601c0.413,0.274,0.896,0.417,1.383,0.417c0.19,0,0.382-0.022,0.571-0.065
		c0.671-0.158,1.248-0.586,1.594-1.184l10-17.301c0.345-0.597,0.428-1.311,0.229-1.971
		C182.795,136.319,182.332,135.77,181.714,135.462z"/>
	<path display="inline" fill="#E7E7E7" d="M69.168,137.055l-8.1-14.101c-0.66-1.149-2.103-1.584-3.29-0.988l-26.9,13.5
		c-0.615,0.309-1.076,0.857-1.273,1.518c-0.197,0.659-0.114,1.371,0.23,1.967l10,17.301c0.346,0.599,0.924,1.027,1.597,1.184
		c0.188,0.044,0.378,0.065,0.567,0.065c0.49,0,0.974-0.144,1.389-0.421l25-16.701C69.482,139.647,69.823,138.194,69.168,137.055z"/>
	<path display="inline" fill="#E7E7E7" d="M89.545,151.432l-14.1-8.1c-1.146-0.657-2.608-0.31-3.334,0.795l-16.5,25.099
		c-0.377,0.574-0.502,1.279-0.345,1.947c0.158,0.668,0.583,1.242,1.177,1.588l17.2,10c0.385,0.225,0.819,0.339,1.256,0.339
		c0.241,0,0.483-0.035,0.719-0.105c0.662-0.199,1.213-0.663,1.52-1.283l13.4-27C91.127,153.526,90.691,152.091,89.545,151.432z"/>
	<path display="inline" fill="#E7E7E7" d="M77.134,30.878c-0.31-0.616-0.86-1.078-1.521-1.274c-0.66-0.197-1.374-0.112-1.97,0.235
		l-17.2,10c-0.595,0.346-1.021,0.921-1.178,1.591s-0.031,1.375,0.349,1.949l16.6,25.1c0.479,0.725,1.274,1.122,2.087,1.122
		c0.428,0,0.86-0.11,1.255-0.339l14.1-8.2c1.142-0.664,1.57-2.102,0.978-3.283L77.134,30.878z"/>
	<path display="inline" fill="#E7E7E7" d="M58.8,114.399V98.2c0-1.319-1.025-2.412-2.342-2.495l-30-1.9
		c-0.701-0.047-1.366,0.2-1.869,0.672C24.085,94.95,23.8,95.609,23.8,96.3v20c0,0.69,0.286,1.35,0.789,1.822
		c0.465,0.438,1.077,0.678,1.711,0.678c0.052,0,0.105-0.002,0.158-0.005l30-1.899C57.774,116.812,58.8,115.72,58.8,114.399z"/>
	<path display="inline" fill="#E7E7E7" d="M30.885,77.138l26.9,13.4c0.357,0.178,0.738,0.263,1.113,0.263
		c0.864,0,1.701-0.449,2.163-1.244l8.2-14.1c0.667-1.147,0.321-2.617-0.788-3.346l-25.099-16.5
		c-0.575-0.378-1.279-0.502-1.947-0.345c-0.668,0.158-1.243,0.583-1.588,1.177l-10,17.2c-0.348,0.597-0.432,1.312-0.234,1.974
		S30.267,76.83,30.885,77.138z"/>
</g>
<g id="default_x5F_8" display="none">
	<path display="inline" fill="#E7E7E7" d="M116.3,23.8h-20c-0.69,0-1.35,0.286-1.823,0.789s-0.716,1.18-0.672,1.869l1.9,30
		C95.788,57.774,96.88,58.8,98.2,58.8h16.2c1.32,0,2.412-1.025,2.496-2.342l1.899-30c0.044-0.689-0.2-1.366-0.673-1.869
		S116.99,23.8,116.3,23.8z"/>
	<path display="inline" fill="#E7E7E7" d="M123.043,61.061l14.101,8.2c0.395,0.229,0.826,0.339,1.254,0.339
		c0.816,0,1.613-0.399,2.092-1.127l16.5-25.099c0.377-0.574,0.502-1.278,0.344-1.947c-0.157-0.668-0.583-1.243-1.177-1.588l-17.2-10
		c-0.598-0.348-1.312-0.432-1.974-0.234c-0.662,0.198-1.212,0.662-1.521,1.28l-13.4,26.9
		C121.475,58.965,121.903,60.398,123.043,61.061z"/>
	<path display="inline" fill="#E7E7E7" d="M143.432,75.545l8.101,14.1c0.46,0.802,1.301,1.255,2.17,1.255
		c0.377,0,0.76-0.086,1.119-0.266l26.9-13.5c0.615-0.31,1.077-0.86,1.273-1.521c0.197-0.661,0.112-1.374-0.234-1.97l-10-17.2
		c-0.346-0.596-0.923-1.022-1.594-1.178c-0.67-0.157-1.377-0.029-1.95,0.352l-25,16.6C143.118,72.946,142.775,74.402,143.432,75.545
		z"/>
	<path display="inline" fill="#E7E7E7" d="M140.386,144.121c-0.729-1.101-2.188-1.445-3.331-0.789l-14.101,8.1
		c-1.148,0.66-1.583,2.101-0.99,3.286l13.5,27c0.309,0.617,0.859,1.08,1.521,1.277c0.234,0.07,0.476,0.104,0.716,0.104
		c0.437,0,0.871-0.114,1.256-0.339l17.2-10c0.595-0.346,1.021-0.922,1.178-1.592s0.03-1.375-0.349-1.948L140.386,144.121z"/>
	<path display="inline" fill="#E7E7E7" d="M188.011,94.477c-0.504-0.473-1.177-0.72-1.869-0.672l-30,1.9
		c-1.316,0.083-2.342,1.176-2.342,2.495v16.2c0,1.32,1.025,2.412,2.342,2.496l30,1.899c0.053,0.003,0.105,0.005,0.158,0.005
		c0.634,0,1.246-0.24,1.711-0.678c0.504-0.473,0.789-1.132,0.789-1.822v-20C188.8,95.609,188.515,94.95,188.011,94.477z"/>
	<path display="inline" fill="#E7E7E7" d="M181.714,135.462l-26.899-13.4c-1.185-0.59-2.624-0.154-3.282,0.993l-8.101,14.101
		c-0.656,1.143-0.313,2.598,0.785,3.327l25,16.601c0.413,0.274,0.896,0.417,1.383,0.417c0.19,0,0.382-0.022,0.571-0.065
		c0.671-0.158,1.248-0.586,1.594-1.184l10-17.301c0.345-0.597,0.428-1.311,0.229-1.971
		C182.795,136.319,182.332,135.77,181.714,135.462z"/>
	<path display="inline" fill="#E7E7E7" d="M69.168,137.055l-8.1-14.101c-0.66-1.149-2.103-1.584-3.29-0.988l-26.9,13.5
		c-0.615,0.309-1.076,0.857-1.273,1.518c-0.197,0.659-0.114,1.371,0.23,1.967l10,17.301c0.346,0.599,0.924,1.027,1.597,1.184
		c0.188,0.044,0.378,0.065,0.567,0.065c0.49,0,0.974-0.144,1.389-0.421l25-16.701C69.482,139.647,69.823,138.194,69.168,137.055z"/>
	<path display="inline" fill="#E7E7E7" d="M77.134,30.878c-0.31-0.616-0.86-1.078-1.521-1.274c-0.66-0.197-1.374-0.112-1.97,0.235
		l-17.2,10c-0.595,0.346-1.021,0.921-1.178,1.591s-0.031,1.375,0.349,1.949l16.6,25.1c0.479,0.725,1.274,1.122,2.087,1.122
		c0.428,0,0.86-0.11,1.255-0.339l14.1-8.2c1.142-0.664,1.57-2.102,0.978-3.283L77.134,30.878z"/>
	<path display="inline" fill="#E7E7E7" d="M58.8,114.399V98.2c0-1.319-1.025-2.412-2.342-2.495l-30-1.9
		c-0.701-0.047-1.366,0.2-1.869,0.672C24.085,94.95,23.8,95.609,23.8,96.3v20c0,0.69,0.286,1.35,0.789,1.822
		c0.465,0.438,1.077,0.678,1.711,0.678c0.052,0,0.105-0.002,0.158-0.005l30-1.899C57.774,116.812,58.8,115.72,58.8,114.399z"/>
	<path display="inline" fill="#E7E7E7" d="M30.885,77.138l26.9,13.4c0.357,0.178,0.738,0.263,1.113,0.263
		c0.864,0,1.701-0.449,2.163-1.244l8.2-14.1c0.667-1.147,0.321-2.617-0.788-3.346l-25.099-16.5
		c-0.575-0.378-1.279-0.502-1.947-0.345c-0.668,0.158-1.243,0.583-1.588,1.177l-10,17.2c-0.348,0.597-0.432,1.312-0.234,1.974
		S30.267,76.83,30.885,77.138z"/>
</g>
<g id="default_x5F_9" display="none">
	<path display="inline" fill="#E7E7E7" d="M116.3,23.8h-20c-0.69,0-1.35,0.286-1.823,0.789s-0.716,1.18-0.672,1.869l1.9,30
		C95.788,57.774,96.88,58.8,98.2,58.8h16.2c1.32,0,2.412-1.025,2.496-2.342l1.899-30c0.044-0.689-0.2-1.366-0.673-1.869
		S116.99,23.8,116.3,23.8z"/>
	<path display="inline" fill="#E7E7E7" d="M123.043,61.061l14.101,8.2c0.395,0.229,0.826,0.339,1.254,0.339
		c0.816,0,1.613-0.399,2.092-1.127l16.5-25.099c0.377-0.574,0.502-1.278,0.344-1.947c-0.157-0.668-0.583-1.243-1.177-1.588l-17.2-10
		c-0.598-0.348-1.312-0.432-1.974-0.234c-0.662,0.198-1.212,0.662-1.521,1.28l-13.4,26.9
		C121.475,58.965,121.903,60.398,123.043,61.061z"/>
	<path display="inline" fill="#E7E7E7" d="M143.432,75.545l8.101,14.1c0.46,0.802,1.301,1.255,2.17,1.255
		c0.377,0,0.76-0.086,1.119-0.266l26.9-13.5c0.615-0.31,1.077-0.86,1.273-1.521c0.197-0.661,0.112-1.374-0.234-1.97l-10-17.2
		c-0.346-0.596-0.923-1.022-1.594-1.178c-0.67-0.157-1.377-0.029-1.95,0.352l-25,16.6C143.118,72.946,142.775,74.402,143.432,75.545
		z"/>
	<path display="inline" fill="#E7E7E7" d="M140.386,144.121c-0.729-1.101-2.188-1.445-3.331-0.789l-14.101,8.1
		c-1.148,0.66-1.583,2.101-0.99,3.286l13.5,27c0.309,0.617,0.859,1.08,1.521,1.277c0.234,0.07,0.476,0.104,0.716,0.104
		c0.437,0,0.871-0.114,1.256-0.339l17.2-10c0.595-0.346,1.021-0.922,1.178-1.592s0.03-1.375-0.349-1.948L140.386,144.121z"/>
	<path display="inline" fill="#E7E7E7" d="M188.011,94.477c-0.504-0.473-1.177-0.72-1.869-0.672l-30,1.9
		c-1.316,0.083-2.342,1.176-2.342,2.495v16.2c0,1.32,1.025,2.412,2.342,2.496l30,1.899c0.053,0.003,0.105,0.005,0.158,0.005
		c0.634,0,1.246-0.24,1.711-0.678c0.504-0.473,0.789-1.132,0.789-1.822v-20C188.8,95.609,188.515,94.95,188.011,94.477z"/>
	<path display="inline" fill="#E7E7E7" d="M181.714,135.462l-26.899-13.4c-1.185-0.59-2.624-0.154-3.282,0.993l-8.101,14.101
		c-0.656,1.143-0.313,2.598,0.785,3.327l25,16.601c0.413,0.274,0.896,0.417,1.383,0.417c0.19,0,0.382-0.022,0.571-0.065
		c0.671-0.158,1.248-0.586,1.594-1.184l10-17.301c0.345-0.597,0.428-1.311,0.229-1.971
		C182.795,136.319,182.332,135.77,181.714,135.462z"/>
	<path display="inline" fill="#E7E7E7" d="M114.399,153.8H98.2c-1.319,0-2.412,1.025-2.495,2.342l-1.9,30
		c-0.043,0.689,0.2,1.365,0.672,1.869s1.132,0.789,1.823,0.789h20c0.69,0,1.35-0.285,1.822-0.789s0.717-1.18,0.673-1.869l-1.899-30
		C116.812,154.825,115.72,153.8,114.399,153.8z"/>
	<path display="inline" fill="#E7E7E7" d="M77.134,30.878c-0.31-0.616-0.86-1.078-1.521-1.274c-0.66-0.197-1.374-0.112-1.97,0.235
		l-17.2,10c-0.595,0.346-1.021,0.921-1.178,1.591s-0.031,1.375,0.349,1.949l16.6,25.1c0.479,0.725,1.274,1.122,2.087,1.122
		c0.428,0,0.86-0.11,1.255-0.339l14.1-8.2c1.142-0.664,1.57-2.102,0.978-3.283L77.134,30.878z"/>
	<path display="inline" fill="#E7E7E7" d="M58.8,114.399V98.2c0-1.319-1.025-2.412-2.342-2.495l-30-1.9
		c-0.701-0.047-1.366,0.2-1.869,0.672C24.085,94.95,23.8,95.609,23.8,96.3v20c0,0.69,0.286,1.35,0.789,1.822
		c0.465,0.438,1.077,0.678,1.711,0.678c0.052,0,0.105-0.002,0.158-0.005l30-1.899C57.774,116.812,58.8,115.72,58.8,114.399z"/>
	<path display="inline" fill="#E7E7E7" d="M30.885,77.138l26.9,13.4c0.357,0.178,0.738,0.263,1.113,0.263
		c0.864,0,1.701-0.449,2.163-1.244l8.2-14.1c0.667-1.147,0.321-2.617-0.788-3.346l-25.099-16.5
		c-0.575-0.378-1.279-0.502-1.947-0.345c-0.668,0.158-1.243,0.583-1.588,1.177l-10,17.2c-0.348,0.597-0.432,1.312-0.234,1.974
		S30.267,76.83,30.885,77.138z"/>
</g>
<g id="default_x5F_10" display="none">
	<path display="inline" fill="#E7E7E7" d="M116.3,23.8h-20c-0.69,0-1.35,0.286-1.823,0.789s-0.716,1.18-0.672,1.869l1.9,30
		C95.788,57.774,96.88,58.8,98.2,58.8h16.2c1.32,0,2.412-1.025,2.496-2.342l1.899-30c0.044-0.689-0.2-1.366-0.673-1.869
		S116.99,23.8,116.3,23.8z"/>
	<path display="inline" fill="#E7E7E7" d="M123.043,61.061l14.101,8.2c0.395,0.229,0.826,0.339,1.254,0.339
		c0.816,0,1.613-0.399,2.092-1.127l16.5-25.099c0.377-0.574,0.502-1.278,0.344-1.947c-0.157-0.668-0.583-1.243-1.177-1.588l-17.2-10
		c-0.598-0.348-1.312-0.432-1.974-0.234c-0.662,0.198-1.212,0.662-1.521,1.28l-13.4,26.9
		C121.475,58.965,121.903,60.398,123.043,61.061z"/>
	<path display="inline" fill="#E7E7E7" d="M143.432,75.545l8.101,14.1c0.46,0.802,1.301,1.255,2.17,1.255
		c0.377,0,0.76-0.086,1.119-0.266l26.9-13.5c0.615-0.31,1.077-0.86,1.273-1.521c0.197-0.661,0.112-1.374-0.234-1.97l-10-17.2
		c-0.346-0.596-0.923-1.022-1.594-1.178c-0.67-0.157-1.377-0.029-1.95,0.352l-25,16.6C143.118,72.946,142.775,74.402,143.432,75.545
		z"/>
	<path display="inline" fill="#E7E7E7" d="M140.386,144.121c-0.729-1.101-2.188-1.445-3.331-0.789l-14.101,8.1
		c-1.148,0.66-1.583,2.101-0.99,3.286l13.5,27c0.309,0.617,0.859,1.08,1.521,1.277c0.234,0.07,0.476,0.104,0.716,0.104
		c0.437,0,0.871-0.114,1.256-0.339l17.2-10c0.595-0.346,1.021-0.922,1.178-1.592s0.03-1.375-0.349-1.948L140.386,144.121z"/>
	<path display="inline" fill="#E7E7E7" d="M188.011,94.477c-0.504-0.473-1.177-0.72-1.869-0.672l-30,1.9
		c-1.316,0.083-2.342,1.176-2.342,2.495v16.2c0,1.32,1.025,2.412,2.342,2.496l30,1.899c0.053,0.003,0.105,0.005,0.158,0.005
		c0.634,0,1.246-0.24,1.711-0.678c0.504-0.473,0.789-1.132,0.789-1.822v-20C188.8,95.609,188.515,94.95,188.011,94.477z"/>
	<path display="inline" fill="#E7E7E7" d="M181.714,135.462l-26.899-13.4c-1.185-0.59-2.624-0.154-3.282,0.993l-8.101,14.101
		c-0.656,1.143-0.313,2.598,0.785,3.327l25,16.601c0.413,0.274,0.896,0.417,1.383,0.417c0.19,0,0.382-0.022,0.571-0.065
		c0.671-0.158,1.248-0.586,1.594-1.184l10-17.301c0.345-0.597,0.428-1.311,0.229-1.971
		C182.795,136.319,182.332,135.77,181.714,135.462z"/>
	<path display="inline" fill="#E7E7E7" d="M114.399,153.8H98.2c-1.319,0-2.412,1.025-2.495,2.342l-1.9,30
		c-0.043,0.689,0.2,1.365,0.672,1.869s1.132,0.789,1.823,0.789h20c0.69,0,1.35-0.285,1.822-0.789s0.717-1.18,0.673-1.869l-1.899-30
		C116.812,154.825,115.72,153.8,114.399,153.8z"/>
	<path display="inline" fill="#E7E7E7" d="M89.545,151.432l-14.1-8.1c-1.146-0.657-2.608-0.31-3.334,0.795l-16.5,25.099
		c-0.377,0.574-0.502,1.279-0.345,1.947c0.158,0.668,0.583,1.242,1.177,1.588l17.2,10c0.385,0.225,0.819,0.339,1.256,0.339
		c0.241,0,0.483-0.035,0.719-0.105c0.662-0.199,1.213-0.663,1.52-1.283l13.4-27C91.127,153.526,90.691,152.091,89.545,151.432z"/>
	<path display="inline" fill="#E7E7E7" d="M77.134,30.878c-0.31-0.616-0.86-1.078-1.521-1.274c-0.66-0.197-1.374-0.112-1.97,0.235
		l-17.2,10c-0.595,0.346-1.021,0.921-1.178,1.591s-0.031,1.375,0.349,1.949l16.6,25.1c0.479,0.725,1.274,1.122,2.087,1.122
		c0.428,0,0.86-0.11,1.255-0.339l14.1-8.2c1.142-0.664,1.57-2.102,0.978-3.283L77.134,30.878z"/>
	<path display="inline" fill="#E7E7E7" d="M30.885,77.138l26.9,13.4c0.357,0.178,0.738,0.263,1.113,0.263
		c0.864,0,1.701-0.449,2.163-1.244l8.2-14.1c0.667-1.147,0.321-2.617-0.788-3.346l-25.099-16.5
		c-0.575-0.378-1.279-0.502-1.947-0.345c-0.668,0.158-1.243,0.583-1.588,1.177l-10,17.2c-0.348,0.597-0.432,1.312-0.234,1.974
		S30.267,76.83,30.885,77.138z"/>
</g>
<g id="default_x5F_11" display="none">
	<path display="inline" fill="#E7E7E7" d="M116.3,23.8h-20c-0.69,0-1.35,0.286-1.823,0.789s-0.716,1.18-0.672,1.869l1.9,30
		C95.788,57.774,96.88,58.8,98.2,58.8h16.2c1.32,0,2.412-1.025,2.496-2.342l1.899-30c0.044-0.689-0.2-1.366-0.673-1.869
		S116.99,23.8,116.3,23.8z"/>
	<path display="inline" fill="#E7E7E7" d="M123.043,61.061l14.101,8.2c0.395,0.229,0.826,0.339,1.254,0.339
		c0.816,0,1.613-0.399,2.092-1.127l16.5-25.099c0.377-0.574,0.502-1.278,0.344-1.947c-0.157-0.668-0.583-1.243-1.177-1.588l-17.2-10
		c-0.598-0.348-1.312-0.432-1.974-0.234c-0.662,0.198-1.212,0.662-1.521,1.28l-13.4,26.9
		C121.475,58.965,121.903,60.398,123.043,61.061z"/>
	<path display="inline" fill="#E7E7E7" d="M143.432,75.545l8.101,14.1c0.46,0.802,1.301,1.255,2.17,1.255
		c0.377,0,0.76-0.086,1.119-0.266l26.9-13.5c0.615-0.31,1.077-0.86,1.273-1.521c0.197-0.661,0.112-1.374-0.234-1.97l-10-17.2
		c-0.346-0.596-0.923-1.022-1.594-1.178c-0.67-0.157-1.377-0.029-1.95,0.352l-25,16.6C143.118,72.946,142.775,74.402,143.432,75.545
		z"/>
	<path display="inline" fill="#E7E7E7" d="M140.386,144.121c-0.729-1.101-2.188-1.445-3.331-0.789l-14.101,8.1
		c-1.148,0.66-1.583,2.101-0.99,3.286l13.5,27c0.309,0.617,0.859,1.08,1.521,1.277c0.234,0.07,0.476,0.104,0.716,0.104
		c0.437,0,0.871-0.114,1.256-0.339l17.2-10c0.595-0.346,1.021-0.922,1.178-1.592s0.03-1.375-0.349-1.948L140.386,144.121z"/>
	<path display="inline" fill="#E7E7E7" d="M188.011,94.477c-0.504-0.473-1.177-0.72-1.869-0.672l-30,1.9
		c-1.316,0.083-2.342,1.176-2.342,2.495v16.2c0,1.32,1.025,2.412,2.342,2.496l30,1.899c0.053,0.003,0.105,0.005,0.158,0.005
		c0.634,0,1.246-0.24,1.711-0.678c0.504-0.473,0.789-1.132,0.789-1.822v-20C188.8,95.609,188.515,94.95,188.011,94.477z"/>
	<path display="inline" fill="#E7E7E7" d="M181.714,135.462l-26.899-13.4c-1.185-0.59-2.624-0.154-3.282,0.993l-8.101,14.101
		c-0.656,1.143-0.313,2.598,0.785,3.327l25,16.601c0.413,0.274,0.896,0.417,1.383,0.417c0.19,0,0.382-0.022,0.571-0.065
		c0.671-0.158,1.248-0.586,1.594-1.184l10-17.301c0.345-0.597,0.428-1.311,0.229-1.971
		C182.795,136.319,182.332,135.77,181.714,135.462z"/>
	<path display="inline" fill="#E7E7E7" d="M69.168,137.055l-8.1-14.101c-0.66-1.149-2.103-1.584-3.29-0.988l-26.9,13.5
		c-0.615,0.309-1.076,0.857-1.273,1.518c-0.197,0.659-0.114,1.371,0.23,1.967l10,17.301c0.346,0.599,0.924,1.027,1.597,1.184
		c0.188,0.044,0.378,0.065,0.567,0.065c0.49,0,0.974-0.144,1.389-0.421l25-16.701C69.482,139.647,69.823,138.194,69.168,137.055z"/>
	<path display="inline" fill="#E7E7E7" d="M114.399,153.8H98.2c-1.319,0-2.412,1.025-2.495,2.342l-1.9,30
		c-0.043,0.689,0.2,1.365,0.672,1.869s1.132,0.789,1.823,0.789h20c0.69,0,1.35-0.285,1.822-0.789s0.717-1.18,0.673-1.869l-1.899-30
		C116.812,154.825,115.72,153.8,114.399,153.8z"/>
	<path display="inline" fill="#E7E7E7" d="M89.545,151.432l-14.1-8.1c-1.146-0.657-2.608-0.31-3.334,0.795l-16.5,25.099
		c-0.377,0.574-0.502,1.279-0.345,1.947c0.158,0.668,0.583,1.242,1.177,1.588l17.2,10c0.385,0.225,0.819,0.339,1.256,0.339
		c0.241,0,0.483-0.035,0.719-0.105c0.662-0.199,1.213-0.663,1.52-1.283l13.4-27C91.127,153.526,90.691,152.091,89.545,151.432z"/>
	<path display="inline" fill="#E7E7E7" d="M77.134,30.878c-0.31-0.616-0.86-1.078-1.521-1.274c-0.66-0.197-1.374-0.112-1.97,0.235
		l-17.2,10c-0.595,0.346-1.021,0.921-1.178,1.591s-0.031,1.375,0.349,1.949l16.6,25.1c0.479,0.725,1.274,1.122,2.087,1.122
		c0.428,0,0.86-0.11,1.255-0.339l14.1-8.2c1.142-0.664,1.57-2.102,0.978-3.283L77.134,30.878z"/>
</g>
<g id="default_x5F_12" display="none">
	<path display="inline" fill="#E7E7E7" d="M116.3,23.8h-20c-0.69,0-1.35,0.286-1.823,0.789s-0.716,1.18-0.672,1.869l1.9,30
		C95.788,57.774,96.88,58.8,98.2,58.8h16.2c1.32,0,2.412-1.025,2.496-2.342l1.899-30c0.044-0.689-0.2-1.366-0.673-1.869
		S116.99,23.8,116.3,23.8z"/>
	<path display="inline" fill="#E7E7E7" d="M123.043,61.061l14.101,8.2c0.395,0.229,0.826,0.339,1.254,0.339
		c0.816,0,1.613-0.399,2.092-1.127l16.5-25.099c0.377-0.574,0.502-1.278,0.344-1.947c-0.157-0.668-0.583-1.243-1.177-1.588l-17.2-10
		c-0.598-0.348-1.312-0.432-1.974-0.234c-0.662,0.198-1.212,0.662-1.521,1.28l-13.4,26.9
		C121.475,58.965,121.903,60.398,123.043,61.061z"/>
	<path display="inline" fill="#E7E7E7" d="M143.432,75.545l8.101,14.1c0.46,0.802,1.301,1.255,2.17,1.255
		c0.377,0,0.76-0.086,1.119-0.266l26.9-13.5c0.615-0.31,1.077-0.86,1.273-1.521c0.197-0.661,0.112-1.374-0.234-1.97l-10-17.2
		c-0.346-0.596-0.923-1.022-1.594-1.178c-0.67-0.157-1.377-0.029-1.95,0.352l-25,16.6C143.118,72.946,142.775,74.402,143.432,75.545
		z"/>
	<path display="inline" fill="#E7E7E7" d="M140.386,144.121c-0.729-1.101-2.188-1.445-3.331-0.789l-14.101,8.1
		c-1.148,0.66-1.583,2.101-0.99,3.286l13.5,27c0.309,0.617,0.859,1.08,1.521,1.277c0.234,0.07,0.476,0.104,0.716,0.104
		c0.437,0,0.871-0.114,1.256-0.339l17.2-10c0.595-0.346,1.021-0.922,1.178-1.592s0.03-1.375-0.349-1.948L140.386,144.121z"/>
	<path display="inline" fill="#E7E7E7" d="M188.011,94.477c-0.504-0.473-1.177-0.72-1.869-0.672l-30,1.9
		c-1.316,0.083-2.342,1.176-2.342,2.495v16.2c0,1.32,1.025,2.412,2.342,2.496l30,1.899c0.053,0.003,0.105,0.005,0.158,0.005
		c0.634,0,1.246-0.24,1.711-0.678c0.504-0.473,0.789-1.132,0.789-1.822v-20C188.8,95.609,188.515,94.95,188.011,94.477z"/>
	<path display="inline" fill="#E7E7E7" d="M181.714,135.462l-26.899-13.4c-1.185-0.59-2.624-0.154-3.282,0.993l-8.101,14.101
		c-0.656,1.143-0.313,2.598,0.785,3.327l25,16.601c0.413,0.274,0.896,0.417,1.383,0.417c0.19,0,0.382-0.022,0.571-0.065
		c0.671-0.158,1.248-0.586,1.594-1.184l10-17.301c0.345-0.597,0.428-1.311,0.229-1.971
		C182.795,136.319,182.332,135.77,181.714,135.462z"/>
	<path display="inline" fill="#E7E7E7" d="M69.168,137.055l-8.1-14.101c-0.66-1.149-2.103-1.584-3.29-0.988l-26.9,13.5
		c-0.615,0.309-1.076,0.857-1.273,1.518c-0.197,0.659-0.114,1.371,0.23,1.967l10,17.301c0.346,0.599,0.924,1.027,1.597,1.184
		c0.188,0.044,0.378,0.065,0.567,0.065c0.49,0,0.974-0.144,1.389-0.421l25-16.701C69.482,139.647,69.823,138.194,69.168,137.055z"/>
	<path display="inline" fill="#E7E7E7" d="M114.399,153.8H98.2c-1.319,0-2.412,1.025-2.495,2.342l-1.9,30
		c-0.043,0.689,0.2,1.365,0.672,1.869s1.132,0.789,1.823,0.789h20c0.69,0,1.35-0.285,1.822-0.789s0.717-1.18,0.673-1.869l-1.899-30
		C116.812,154.825,115.72,153.8,114.399,153.8z"/>
	<path display="inline" fill="#E7E7E7" d="M89.545,151.432l-14.1-8.1c-1.146-0.657-2.608-0.31-3.334,0.795l-16.5,25.099
		c-0.377,0.574-0.502,1.279-0.345,1.947c0.158,0.668,0.583,1.242,1.177,1.588l17.2,10c0.385,0.225,0.819,0.339,1.256,0.339
		c0.241,0,0.483-0.035,0.719-0.105c0.662-0.199,1.213-0.663,1.52-1.283l13.4-27C91.127,153.526,90.691,152.091,89.545,151.432z"/>
	<path display="inline" fill="#E7E7E7" d="M58.8,114.399V98.2c0-1.319-1.025-2.412-2.342-2.495l-30-1.9
		c-0.701-0.047-1.366,0.2-1.869,0.672C24.085,94.95,23.8,95.609,23.8,96.3v20c0,0.69,0.286,1.35,0.789,1.822
		c0.465,0.438,1.077,0.678,1.711,0.678c0.052,0,0.105-0.002,0.158-0.005l30-1.899C57.774,116.812,58.8,115.72,58.8,114.399z"/>
</g>
<g id="half_x5F_1">
	<path fill="#F5F5F5" d="M74.562,23.673c-0.338-0.677-0.939-1.186-1.664-1.405s-1.507-0.131-2.165,0.246l-19.2,11
		c-0.662,0.379-1.136,1.016-1.31,1.758c-0.174,0.742-0.032,1.523,0.392,2.157l18.4,27.5c0.528,0.789,1.398,1.221,2.288,1.221
		c0.47,0,0.945-0.121,1.379-0.373l15.5-9c1.254-0.728,1.728-2.306,1.081-3.604L74.562,23.673z"/>
</g>
<g id="half_x5F_2" display="none">
	<path display="inline" fill="#F5F5F5" d="M117.5,15.85h-22c-0.76,0-1.485,0.314-2.005,0.868c-0.52,0.554-0.787,1.298-0.739,2.057
		l2.1,33c0.092,1.448,1.293,2.575,2.745,2.575h17.8c1.451,0,2.652-1.127,2.744-2.575l2.1-33c0.049-0.758-0.219-1.502-0.738-2.057
		C118.985,16.164,118.26,15.85,117.5,15.85z"/>
</g>
<g id="half_x5F_3" display="none">
	<path display="inline" fill="#F5F5F5" d="M124.931,56.884l15.5,8.9c0.431,0.248,0.901,0.366,1.367,0.366
		c0.892,0,1.765-0.435,2.292-1.227l18.3-27.5c0.421-0.634,0.562-1.414,0.388-2.155c-0.176-0.741-0.649-1.376-1.311-1.755l-19.199-11
		c-0.66-0.377-1.445-0.465-2.17-0.244c-0.727,0.222-1.328,0.733-1.664,1.414l-14.6,29.6
		C123.191,54.585,123.672,56.162,124.931,56.884z"/>
</g>
<g id="half_x5F_4" display="none">
	<path display="inline" fill="#F5F5F5" d="M147.319,72.775l8.899,15.4c0.508,0.877,1.43,1.375,2.383,1.375
		c0.41,0,0.824-0.092,1.215-0.284l29.6-14.6c0.682-0.336,1.193-0.938,1.414-1.664c0.222-0.726,0.133-1.511-0.244-2.17l-11-19.2
		c-0.379-0.662-1.016-1.136-1.758-1.31c-0.74-0.174-1.523-0.032-2.157,0.392l-27.5,18.4
		C146.967,69.919,146.594,71.521,147.319,72.775z"/>
</g>
<g id="half_x5F_5" display="none">
	<path display="inline" fill="#F5F5F5" d="M196.382,93.594c-0.554-0.52-1.296-0.783-2.057-0.739l-33,2.1
		c-1.448,0.092-2.575,1.293-2.575,2.745v17.9c0,1.454,1.133,2.657,2.584,2.745l33,2c0.055,0.003,0.111,0.005,0.166,0.005
		c0.699,0,1.373-0.266,1.885-0.748c0.553-0.52,0.865-1.244,0.865-2.002v-22C197.25,94.84,196.936,94.114,196.382,93.594z"/>
</g>
<g id="half_x5F_6" display="none">
	<path display="inline" fill="#F5F5F5" d="M189.424,138.637l-29.601-14.7c-1.296-0.644-2.868-0.173-3.598,1.075l-9,15.4
		c-0.735,1.26-0.36,2.874,0.854,3.68l27.601,18.3c0.454,0.302,0.983,0.458,1.52,0.458c0.21,0,0.42-0.023,0.628-0.072
		c0.738-0.174,1.372-0.644,1.752-1.3l11-19c0.381-0.657,0.473-1.443,0.254-2.171C190.614,139.579,190.104,138.975,189.424,138.637z"
		/>
</g>
<g id="half_x5F_7" display="none">
	<path display="inline" fill="#F5F5F5" d="M143.986,148.271c-0.805-1.202-2.402-1.575-3.655-0.855l-15.5,8.899
		c-1.262,0.725-1.741,2.306-1.094,3.608l14.7,29.601c0.336,0.678,0.938,1.188,1.664,1.408c0.261,0.079,0.53,0.118,0.799,0.118
		c0.475,0,0.946-0.123,1.367-0.364l19.199-11c0.662-0.379,1.137-1.016,1.311-1.758s0.032-1.523-0.392-2.157L143.986,148.271z"/>
</g>
<g id="half_x5F_8" display="none">
	<path display="inline" fill="#F5F5F5" d="M115.4,158.85H97.6c-1.451,0-2.652,1.127-2.745,2.575l-2.1,33
		c-0.048,0.759,0.219,1.503,0.739,2.057s1.246,0.868,2.005,0.868h22c0.76,0,1.485-0.314,2.006-0.868
		c0.52-0.554,0.787-1.298,0.738-2.057l-2.1-33C118.053,159.977,116.852,158.85,115.4,158.85z"/>
</g>
<g id="half_x5F_9" display="none">
	<path display="inline" fill="#F5F5F5" d="M88.081,156.322l-15.5-9c-1.259-0.732-2.869-0.355-3.673,0.857l-18.3,27.601
		c-0.42,0.634-0.559,1.413-0.384,2.153c0.175,0.74,0.649,1.375,1.309,1.752l19.2,11c0.42,0.241,0.892,0.364,1.367,0.364
		c0.27,0,0.54-0.04,0.803-0.12c0.726-0.221,1.328-0.732,1.664-1.414l14.6-29.6C89.806,158.619,89.332,157.048,88.081,156.322z"/>
</g>
<g id="half_x5F_10" display="none">
	<path display="inline" fill="#F5F5F5" d="M65.674,140.412l-9-15.4c-0.731-1.25-2.305-1.719-3.601-1.074l-29.5,14.701
		c-0.679,0.338-1.188,0.942-1.407,1.67c-0.218,0.727-0.126,1.512,0.254,2.169l11,19c0.38,0.657,1.015,1.128,1.754,1.3
		c0.207,0.049,0.417,0.072,0.625,0.072c0.538,0,1.068-0.158,1.523-0.461l27.5-18.299C66.036,143.282,66.409,141.67,65.674,140.412z"
		/>
</g>
<g id="half_x5F_11" display="none">
	<path display="inline" fill="#F5F5F5" d="M54.25,115.5V97.6c0-1.454-1.132-2.657-2.583-2.745l-33-2
		c-0.761-0.05-1.499,0.223-2.051,0.743S15.75,94.841,15.75,95.6v22c0,0.76,0.314,1.485,0.868,2.006
		c0.511,0.479,1.185,0.744,1.882,0.744c0.058,0,0.116-0.002,0.175-0.006l33-2.1C53.123,118.152,54.25,116.951,54.25,115.5z"/>
</g>
<g id="half_x5F_12" display="none">
	<path display="inline" fill="#F5F5F5" d="M23.583,74.666l29.6,14.6c0.39,0.192,0.805,0.284,1.214,0.284
		c0.954,0,1.876-0.497,2.383-1.375l8.9-15.4c0.725-1.254,0.353-2.856-0.852-3.662l-27.5-18.4c-0.634-0.424-1.416-0.566-2.157-0.392
		c-0.743,0.174-1.379,0.648-1.758,1.31l-11,19.2c-0.377,0.659-0.465,1.444-0.244,2.17C22.391,73.728,22.903,74.33,23.583,74.666z"/>
</g>
<g id="full_x5F_1">
	<path fill="#FFFFFF" d="M120.485,8.244C119.918,7.642,119.128,7.3,118.3,7.3h-24c-0.829,0-1.621,0.343-2.188,0.947
		c-0.567,0.604-0.859,1.417-0.806,2.244l2.3,36C93.707,48.07,95.017,49.3,96.6,49.3h19.5c1.586,0,2.897-1.234,2.995-2.817l2.199-36
		C121.345,9.657,121.052,8.847,120.485,8.244z"/>
</g>
<g id="full_x5F_2" display="none">
	<path display="inline" fill="#FFFFFF" d="M167.62,28.411c-0.19-0.805-0.705-1.496-1.422-1.91l-20.799-12
		c-0.719-0.415-1.575-0.513-2.37-0.272c-0.794,0.241-1.452,0.799-1.819,1.543l-16,32.4c-0.701,1.42-0.178,3.142,1.197,3.93
		l16.899,9.7c0.47,0.27,0.983,0.398,1.491,0.398c0.977,0,1.93-0.477,2.504-1.346l19.9-30.1
		C167.659,30.064,167.81,29.216,167.62,28.411z"/>
</g>
<g id="full_x5F_3" display="none">
	<path display="inline" fill="#FFFFFF" d="M197.999,67.201l-12-20.8c-0.415-0.719-1.108-1.233-1.916-1.422
		c-0.806-0.188-1.656-0.035-2.348,0.425l-30,20c-1.317,0.878-1.725,2.631-0.931,4.001l9.8,16.9c0.555,0.956,1.559,1.496,2.598,1.496
		c0.451,0,0.91-0.103,1.34-0.317l32.199-16.1c0.74-0.37,1.294-1.028,1.531-1.82C198.511,68.771,198.411,67.917,197.999,67.201z"/>
</g>
<g id="full_x5F_4" display="none">
	<path display="inline" fill="#FFFFFF" d="M204.353,92.112c-0.605-0.566-1.413-0.858-2.244-0.806l-36,2.3
		c-1.579,0.101-2.809,1.412-2.809,2.994v19.5c0,1.586,1.234,2.897,2.816,2.995l36,2.199c0.062,0.004,0.123,0.006,0.184,0.006
		c0.762,0,1.498-0.29,2.056-0.814c0.603-0.567,0.944-1.357,0.944-2.186v-24C205.3,93.471,204.957,92.679,204.353,92.112z"/>
</g>
<g id="full_x5F_5" display="none">
	<path display="inline" fill="#FFFFFF" d="M198.271,143.031c-0.24-0.794-0.798-1.452-1.54-1.819l-32.301-16
		c-1.415-0.701-3.133-0.184-3.926,1.184l-9.801,16.899c-0.797,1.374-0.384,3.132,0.941,4.007l30.1,19.9
		c0.495,0.327,1.071,0.498,1.654,0.498c0.23,0,0.462-0.027,0.689-0.08c0.805-0.19,1.496-0.705,1.91-1.422l12-20.799
		C198.413,144.681,198.511,143.824,198.271,143.031z"/>
</g>
<g id="full_x5F_6" display="none">
	<path display="inline" fill="#FFFFFF" d="M167.196,181.735l-20-30c-0.879-1.318-2.631-1.726-4.002-0.931l-16.899,9.8
		c-1.37,0.795-1.886,2.517-1.181,3.934l16.101,32.301c0.37,0.742,1.03,1.297,1.825,1.535c0.281,0.084,0.571,0.126,0.859,0.126
		c0.525,0,1.047-0.138,1.509-0.407l20.8-12.1c0.715-0.416,1.227-1.109,1.414-1.916C167.81,183.272,167.655,182.425,167.196,181.735z
		"/>
</g>
<g id="full_x5F_7" display="none">
	<path display="inline" fill="#FFFFFF" d="M118.994,166.108c-0.101-1.579-1.411-2.809-2.994-2.809H96.5
		c-1.586,0-2.897,1.234-2.995,2.816l-2.2,36c-0.05,0.826,0.243,1.637,0.81,2.239s1.357,0.944,2.185,0.944h24
		c0.829,0,1.621-0.343,2.188-0.947c0.567-0.604,0.859-1.417,0.807-2.244L118.994,166.108z"/>
</g>
<g id="full_x5F_8" display="none">
	<path display="inline" fill="#FFFFFF" d="M86.211,160.509l-16.8-9.801c-1.373-0.801-3.131-0.393-4.01,0.932l-20,30.1
		c-0.458,0.689-0.611,1.535-0.423,2.341s0.699,1.497,1.414,1.913l20.8,12.1c0.462,0.27,0.983,0.407,1.508,0.407
		c0.291,0,0.582-0.042,0.865-0.128c0.796-0.239,1.457-0.799,1.825-1.544l16-32.4C88.087,163.015,87.573,161.302,86.211,160.509z"/>
</g>
<g id="full_x5F_9" display="none">
	<path display="inline" fill="#FFFFFF" d="M61.795,143.194l-9.8-16.899c-0.795-1.372-2.521-1.888-3.937-1.179l-32.2,16.101
		c-0.739,0.37-1.293,1.028-1.531,1.819c-0.238,0.792-0.139,1.646,0.274,2.363l12,20.799c0.415,0.719,1.108,1.234,1.916,1.423
		c0.226,0.053,0.455,0.079,0.683,0.079c0.587,0,1.167-0.173,1.664-0.504l30-20C62.182,146.317,62.589,144.565,61.795,143.194z"/>
</g>
<g id="full_x5F_10" display="none">
	<path display="inline" fill="#FFFFFF" d="M46.483,93.505l-36-2.2c-0.833-0.043-1.636,0.243-2.239,0.81S7.3,93.472,7.3,94.3v24
		c0,0.829,0.343,1.621,0.947,2.188c0.558,0.523,1.292,0.812,2.053,0.812c0.063,0,0.127-0.002,0.191-0.006l36-2.3
		c1.579-0.101,2.809-1.411,2.809-2.994V96.5C49.3,94.914,48.065,93.603,46.483,93.505z"/>
</g>
<g id="full_x5F_11" display="none">
	<path display="inline" fill="#FFFFFF" d="M60.864,65.404l-30-20c-0.69-0.46-1.54-0.614-2.347-0.425
		c-0.808,0.189-1.501,0.704-1.916,1.422l-12,20.8c-0.414,0.718-0.513,1.575-0.273,2.368c0.24,0.793,0.797,1.452,1.54,1.82l32.3,16
		c0.427,0.211,0.881,0.312,1.33,0.312c1.04,0,2.047-0.542,2.6-1.5l9.7-16.8C62.589,68.03,62.18,66.281,60.864,65.404z"/>
</g>
<g id="full_x5F_12" display="none">
	<path display="inline" fill="#FFFFFF" d="M87.486,48.165l-16.1-32.4c-0.368-0.742-1.027-1.298-1.819-1.537
		c-0.793-0.239-1.65-0.141-2.366,0.273l-20.8,12c-0.718,0.414-1.232,1.106-1.421,1.913c-0.189,0.807-0.037,1.656,0.422,2.346
		l20,30.1c0.575,0.866,1.527,1.34,2.501,1.34c0.507,0,1.021-0.129,1.491-0.398l16.9-9.7C87.67,51.312,88.193,49.586,87.486,48.165z"
		/>
</g>
</svg>
