<?xml version="1.0" encoding="utf-8"?>
<!-- Generator: Adobe Illustrator 16.0.0, SVG Export Plug-In . SVG Version: 6.00 Build 0)  -->
<!DOCTYPE svg PUBLIC "-//W3C//DTD SVG 1.1//EN" "http://www.w3.org/Graphics/SVG/1.1/DTD/svg11.dtd">
<svg version="1.1" id="Layer_1" xmlns="http://www.w3.org/2000/svg" xmlns:xlink="http://www.w3.org/1999/xlink" x="0px" y="0px"
	 width="640px" height="640px" viewBox="0 0 640 640" enable-background="new 0 0 640 640" xml:space="preserve">
<g>
	<path fill="#e26901" d="M320.63,0c-10.076,0-18.897,3.777-26.464,11.344c-6.299,6.299-10.077,15.108-10.077,25.197
		c0,3.777,0,8.809,1.268,11.332c-30.241,6.299-56.693,20.165-79.38,44.095c-31.496,31.496-47.872,69.292-47.872,114.653v10.076
		c-2.522,42.828-12.599,81.89-34.019,117.163c-11.331,17.643-23.93,35.273-41.572,51.649c-21.414,22.687-46.611,41.585-74.33,54.183
		v62.992c0,3.777,2.522,7.555,5.038,11.332c3.783,2.521,6.299,3.777,11.344,3.777H617.95c5.043,0,7.566-1.256,11.343-3.777
		c1.255-3.777,2.522-7.555,2.522-11.332v-62.992c-26.465-12.598-51.661-31.496-74.336-54.183
		c-16.376-16.376-28.974-34.007-40.317-51.649c-20.152-35.273-31.496-74.335-32.752-117.163V206.62
		c0-45.362-16.375-83.157-47.871-114.653c-22.688-23.93-50.395-39.051-79.381-44.095c0-2.522,1.268-7.554,1.268-11.332
		c0-10.088-5.044-18.897-11.344-25.197C339.528,3.777,331.962,0,320.63,0z"/>
	<path fill="#e26901" d="M394.954,609.771c16.388-17.644,26.464-37.796,28.986-60.482h-206.62
		c3.777,22.687,13.853,44.095,30.241,60.482C267.714,629.924,291.656,640,320.63,640s52.917-10.076,73.069-30.229
		C394.954,609.771,394.954,609.771,394.954,609.771z"/>
</g>
</svg>
