<?xml version="1.0" encoding="utf-8"?>
<!-- Generator: Adobe Illustrator 16.0.0, SVG Export Plug-In . SVG Version: 6.00 Build 0)  -->
<!DOCTYPE svg PUBLIC "-//W3C//DTD SVG 1.1//EN" "http://www.w3.org/Graphics/SVG/1.1/DTD/svg11.dtd">
<svg version="1.1" id="Layer_1" xmlns="http://www.w3.org/2000/svg" xmlns:xlink="http://www.w3.org/1999/xlink" x="0px" y="0px"
	 width="640px" height="640px" viewBox="0 0 640 640" enable-background="new 0 0 640 640" xml:space="preserve">
<path fill="#1B365D" d="M639.962,299.539c0-22.633-18.29-31.239-55.946-40.923c-22.709-5.84-36.35-13.563-43.688-18.866
	c-2.383-6.417-4.957-12.68-7.839-18.828c1.499-8.953,5.648-24.054,17.561-44.227c19.788-33.506,26.666-52.526,10.682-68.511
	l-14.447-14.486L531.797,79.25c-15.984-15.984-35.005-9.145-68.511,10.645c-20.173,11.949-35.312,16.1-44.228,17.598
	c-6.147-2.882-12.449-5.456-18.866-7.838c-5.264-7.34-13.025-20.98-18.828-43.65C371.644,18.31,363.036,0.02,340.442,0.02H320
	h-20.441c-22.632,0-31.239,18.29-40.922,55.984c-5.841,22.67-13.564,36.311-18.828,43.65c-6.456,2.382-12.719,4.956-18.905,7.838
	c-8.953-1.498-24.054-5.687-44.188-17.56c-33.468-19.827-52.526-26.667-68.549-10.683L93.718,93.736l-14.447,14.448
	c-15.946,15.984-9.146,35.043,10.644,68.511c11.911,20.173,16.1,35.273,17.599,44.227c-2.921,6.187-5.495,12.488-7.877,18.905
	c-7.378,5.264-21.019,12.987-43.612,18.828C18.329,268.3,0.039,276.945,0,299.539l0.039,20.479L0,340.423
	c0.039,22.593,18.329,31.277,55.985,40.922c22.67,5.841,36.311,13.563,43.688,18.828c2.344,6.455,4.957,12.757,7.839,18.943
	c-1.499,8.953-5.688,24.054-17.561,44.149c-19.827,33.468-26.666,52.565-10.682,68.55l14.486,14.447l14.447,14.448
	c15.984,15.946,35.043,9.145,68.511-10.644c20.173-11.912,35.312-16.101,44.227-17.561c6.187,2.882,12.488,5.456,18.905,7.801
	c5.265,7.415,12.987,21.018,18.828,43.688c9.645,37.656,18.29,55.984,40.884,55.984h20.48h20.403
	c22.632-0.038,31.239-18.328,40.922-55.984c5.841-22.671,13.603-36.35,18.867-43.688c6.416-2.383,12.718-4.957,18.866-7.839
	c8.953,1.498,24.054,5.648,44.188,17.56c33.468,19.789,52.564,26.667,68.549,10.683l14.448-14.486l14.447-14.447
	c15.984-15.985,9.146-35.044-10.644-68.512c-11.912-20.173-16.1-35.312-17.599-44.227c2.882-6.147,5.495-12.449,7.839-18.866
	c7.339-5.265,21.019-12.987,43.688-18.828C621.672,371.661,640,363.016,640,340.423V319.98L639.962,299.539z M185.284,319.98
	c0-74.274,60.403-134.717,134.716-134.717c74.275,0,134.717,60.442,134.717,134.717c0,74.313-60.441,134.717-134.717,134.717
	C245.688,454.697,185.284,394.294,185.284,319.98z"/>
</svg>
