<?xml version="1.0" encoding="utf-8"?>
<!-- Generator: Adobe Illustrator 16.0.0, SVG Export Plug-In . SVG Version: 6.00 Build 0)  -->
<!DOCTYPE svg PUBLIC "-//W3C//DTD SVG 1.1//EN" "http://www.w3.org/Graphics/SVG/1.1/DTD/svg11.dtd">
<svg version="1.1" id="Layer_1" xmlns="http://www.w3.org/2000/svg" xmlns:xlink="http://www.w3.org/1999/xlink" x="0px" y="0px"
	 width="640px" height="640px" viewBox="0 0 640 640" enable-background="new 0 0 640 640" xml:space="preserve">
<g id="iconSensors">
	<g>
		<g>
			<path fill="#1B365D" d="M77.755,447.934l20.715,37.414c25.664-8.342,48.681-22.531,69.084-42.762
				c33.833-33.799,50.654-74.727,50.654-122.664c0-47.989-16.821-88.727-50.654-122.56c-20.403-20.403-43.42-34.715-69.084-42.71
				l-20.715,37.796l4.586,1.177c20.715,6.005,39.301,17.115,55.447,33.451c25.664,25.526,38.437,56.504,38.437,92.846
				c0,36.255-12.755,67.302-38.437,92.949c-16.302,16.285-34.905,27.447-55.655,33.678L77.755,447.934L77.755,447.934z"/>
			<path fill="#1B365D" d="M113.508,388.799c18.968-18.932,28.521-41.984,28.521-68.876c0-26.997-9.553-49.771-28.521-68.773
				c-15.038-15.211-32.933-24.228-53.475-27.238l-22.497,40.513l10.436,0.588c14,0.52,25.889,5.814,35.943,15.904
				c10.834,10.851,16.129,23.777,16.129,39.007c0,15.228-5.295,28.259-16.129,39.111c-10.055,9.969-22.116,15.264-36.116,16.129
				l-10.072,0.502l22.307,40.408C80.575,413.062,98.47,403.838,113.508,388.799L113.508,388.799z"/>
			<path fill="#1B365D" d="M70.832,321.324c0-9.744-3.357-18.257-10.297-25.163c-5.469-5.503-12.01-8.688-19.296-9.743
				c-1.955-0.363-3.894-0.52-5.814-0.52c-9.761,0-18.102,3.341-24.989,10.263C3.53,303.067,0,311.581,0,321.324
				c0,9.691,3.53,18.066,10.436,24.885c6.888,6.957,15.229,10.539,24.989,10.539c1.921,0,3.859-0.242,5.814-0.363
				c7.286-1.246,13.827-4.619,19.296-10.176C67.475,339.391,70.832,331.016,70.832,321.324L70.832,321.324z"/>
		</g>
		<g>
			<path fill="#1B365D" d="M562.229,192.05l-20.698-37.397c-25.682,8.324-48.698,22.515-69.084,42.745
				c-33.833,33.798-50.654,74.726-50.654,122.663c0,47.988,16.821,88.726,50.654,122.558c20.386,20.404,43.402,34.717,69.084,42.729
				l20.698-37.779l-4.586-1.211c-20.698-6.004-39.302-17.115-55.431-33.451c-25.682-25.525-38.436-56.504-38.436-92.845
				c0-36.256,12.754-67.302,38.436-92.949c16.285-16.285,34.905-27.43,55.62-33.677L562.229,192.05L562.229,192.05z"/>
			<path fill="#1B365D" d="M526.475,251.184c-18.967,18.967-28.503,41.983-28.503,68.877c0,26.998,9.536,49.771,28.503,68.773
				c15.056,15.229,32.933,24.229,53.475,27.238l22.515-40.512l-10.436-0.588c-14.018-0.52-25.889-5.816-35.961-15.904
				c-10.816-10.852-16.129-23.779-16.129-39.007c0-15.229,5.312-28.261,16.129-39.111c10.072-9.968,22.116-15.264,36.117-16.129
				l10.089-0.502l-22.324-40.408C559.407,226.921,541.53,236.163,526.475,251.184L526.475,251.184z"/>
			<path fill="#1B365D" d="M569.168,318.694c0,9.708,3.357,18.222,10.297,25.144c5.451,5.486,11.992,8.672,19.296,9.727
				c1.938,0.363,3.859,0.555,5.797,0.555c9.761,0,18.119-3.375,24.99-10.281c6.904-6.922,10.452-15.436,10.452-25.144
				c0-9.691-3.548-18.102-10.452-24.921c-6.871-6.956-15.229-10.539-24.99-10.539c-1.938,0-3.858,0.242-5.797,0.363
				c-7.304,1.246-13.845,4.621-19.296,10.176C572.525,300.592,569.168,309.002,569.168,318.694L569.168,318.694z"/>
		</g>
		<path fill="#1B365D" d="M385.052,318.452c0-17.895-6.178-33.504-18.88-46.207c-10.055-10.089-22.065-15.921-35.442-17.876
			c-3.6-0.658-7.147-1.004-10.695-1.004c-17.929,0-33.244,6.195-45.911,18.88c-12.72,12.703-19.192,28.312-19.192,46.207
			c0,17.808,6.473,33.244,19.192,45.773c12.667,12.771,27.982,19.365,45.911,19.365c3.548,0,7.096-0.467,10.695-0.691
			c13.377-2.285,25.388-8.48,35.442-18.674C378.874,351.695,385.052,336.275,385.052,318.452L385.052,318.452z"/>
	</g>
</g>
</svg>
