<?xml version="1.0" encoding="utf-8"?>
<!-- Generator: Adobe Illustrator 16.0.0, SVG Export Plug-In . SVG Version: 6.00 Build 0)  -->
<!DOCTYPE svg PUBLIC "-//W3C//DTD SVG 1.1//EN" "http://www.w3.org/Graphics/SVG/1.1/DTD/svg11.dtd">
<svg version="1.1" id="Layer_1" xmlns="http://www.w3.org/2000/svg" xmlns:xlink="http://www.w3.org/1999/xlink" x="0px" y="0px"
	 width="640px" height="640px" viewBox="0 0 640 640" enable-background="new 0 0 640 640" xml:space="preserve">
<g>
	<path fill="#1B365D" d="M583.948,241.948c-14.431-34.107-35.055-64.756-61.37-91.015c-24.474-24.474-52.667-44.038-83.984-58.283
		v98.937c8.201,6.025,15.975,12.684,23.302,20.011c37.92,37.9,58.805,88.299,58.805,141.896s-20.885,103.995-58.805,141.896
		c-37.9,37.938-88.28,58.804-141.896,58.804s-103.995-20.865-141.896-58.804c-37.92-37.9-58.804-88.299-58.804-141.896
		s20.884-103.995,58.804-141.896c7.327-7.327,15.101-13.985,23.302-20.011V92.65c-31.317,14.245-59.511,33.81-83.984,58.283
		c-26.314,26.259-46.938,56.907-61.37,91.015c-14.971,35.371-22.54,72.9-22.54,111.545c0,38.682,7.569,76.174,22.54,111.545
		c14.432,34.107,35.056,64.755,61.37,91.052c26.278,26.259,56.926,46.938,91.052,61.407C243.826,632.412,281.355,640,320,640
		c38.683,0,76.174-7.588,111.527-22.503c34.125-14.469,64.773-35.148,91.051-61.407c26.315-26.297,46.939-56.944,61.37-91.052
		c14.971-35.371,22.54-72.863,22.54-111.545C606.488,314.849,598.919,277.319,583.948,241.948z"/>
	<rect x="277.115" fill="#1B365D" width="85.77" height="249.089"/>
</g>
</svg>
