<?xml version="1.0" encoding="utf-8"?>
<!-- Generator: Adobe Illustrator 16.0.0, SVG Export Plug-In . SVG Version: 6.00 Build 0)  -->
<!DOCTYPE svg PUBLIC "-//W3C//DTD SVG 1.1//EN" "http://www.w3.org/Graphics/SVG/1.1/DTD/svg11.dtd">
<svg version="1.1" id="Layer_2" xmlns="http://www.w3.org/2000/svg" xmlns:xlink="http://www.w3.org/1999/xlink" x="0px" y="0px"
	 width="1600px" height="320px" viewBox="0 0 1600 320" enable-background="new 0 0 1600 320" xml:space="preserve">
<path fill="#FFFFFF" d="M58.146,103.401H19.603c-2.717,0-4.887-2.167-4.887-4.886V77.89c0-2.713,2.17-4.887,4.887-4.887h110.203
	c2.717,0,4.887,2.174,4.887,4.887v20.625c0,2.72-2.17,4.886-4.887,4.886H91.261v141.701c0,2.711-2.17,4.877-4.887,4.877H63.033
	c-2.717,0-4.887-2.166-4.887-4.877V103.401z"/>
<path fill="#FFFFFF" d="M160.75,77.89c0-2.713,2.173-4.887,4.886-4.887H268.24c2.716,0,4.887,2.174,4.887,4.887v20.625
	c0,2.72-2.17,4.886-4.887,4.886h-74.916v41.265h62.43c2.717,0,4.887,2.174,4.887,4.887v21.174c0,2.713-2.17,4.887-4.887,4.887
	h-62.43v43.969h74.916c2.716,0,4.887,2.174,4.887,4.887v20.625c0,2.721-2.17,4.887-4.887,4.887H165.637
	c-2.713,0-4.886-2.166-4.886-4.887L160.75,77.89L160.75,77.89z"/>
<path fill="#FFFFFF" d="M308.959,77.89c0-2.713,2.169-4.887,4.885-4.887h23.344c2.717,0,4.886,2.174,4.886,4.887v141.691h64.604
	c2.716,0,4.886,2.174,4.886,4.887v20.634c0,2.713-2.17,4.877-4.886,4.877h-92.288c-2.717,0-4.886-2.164-4.886-4.877V77.89H308.959z"
	/>
<path fill="#FFFFFF" d="M436.535,77.89c0-2.713,2.173-4.887,4.887-4.887h23.345c2.715,0,4.888,2.174,4.888,4.887v141.691h64.602
	c2.713,0,4.886,2.174,4.886,4.887v20.634c0,2.713-2.173,4.877-4.886,4.877h-92.292c-2.713,0-4.887-2.164-4.887-4.877V77.89H436.535z
	"/>
<path fill="#FFFFFF" d="M564.114,77.89c0-2.713,2.173-4.887,4.343-4.887h59.716c48.861,0,88.492,39.631,88.492,87.949
	c0,48.856-39.631,88.487-88.492,88.487h-59.716c-2.713,0-4.343-2.174-4.343-4.887V77.89z M625.461,219.042
	c32.572,0,57.003-24.972,57.003-57.543c0-32.579-23.889-57.55-57.003-57.55h-28.771v115.093H625.461z"/>
<path fill="#FFFFFF" d="M748.15,77.89c0-2.713,2.173-4.887,4.886-4.887h23.885c2.721,0,4.887,2.174,4.887,4.887v103.147
	c0,21.712,14.659,38.544,36.378,38.544c21.712,0,36.911-16.832,36.911-37.997V77.89c0-2.713,2.173-4.887,4.887-4.887h23.894
	c2.712,0,4.886,2.174,4.886,4.887v104.774c0,38.551-30.404,69.488-70.575,69.488c-39.632,0-70.036-30.938-70.036-69.488
	L748.15,77.89L748.15,77.89z"/>
<path fill="#FFFFFF" d="M921.873,225.007l9.234-15.737c2.164-3.801,6.512-3.801,8.686-1.634
	c1.086,0.548,21.711,15.746,37.997,15.746c13.032,0,22.806-8.688,22.806-19.538c0-13.033-10.857-21.72-32.031-30.404
	c-23.885-9.773-47.229-24.974-47.229-54.283c0-22.259,16.826-48.325,57.003-48.325c25.512,0,45.598,13.033,50.483,16.833
	c2.721,1.626,3.26,5.973,1.635,8.139l-9.773,14.659c-2.174,3.261-5.973,4.887-8.688,3.261c-2.172-1.087-21.172-14.113-35.29-14.113
	c-14.113,0-22.259,9.773-22.259,17.913c0,11.945,9.23,20.085,29.864,28.23c24.425,9.766,52.655,24.427,52.655,56.997
	c0,26.066-22.257,49.951-58.088,49.951c-32.033,0-50.485-14.66-55.37-19.546C920.787,230.439,919.161,228.814,921.873,225.007"/>
<path fill="#e26901" d="M1282.354,127.295l-100.435-81.977c-1.633-1.086-3.8-1.634-5.434,0l-108.573,82.515
	c-1.625,1.087-2.173,3.261-1.625,4.887c0.538,1.634,2.165,3.261,4.337,3.261h22.798v109.66c0,2.719,2.174,4.338,4.349,4.338h152.553
	c2.712,0,4.34-2.164,4.34-4.338V135.98h24.432c1.626,0,3.801-1.087,4.349-2.721C1283.979,130.547,1283.441,128.92,1282.354,127.295"
	/>
<polygon fill="#BBBBBB" points="1336.096,249.979 1336.096,141.953 1356.729,141.953 1356.729,229.895 1384.953,229.895
	1384.953,249.979 "/>
<rect x="1394.727" y="141.953" fill="#BBBBBB" width="21.173" height="107.486"/>
<polygon fill="#BBBBBB" points="1469.104,141.953 1491.9,141.953 1471.816,249.979 1445.217,249.979 1424.585,141.953
	1447.391,141.953 1453.904,185.377 1457.703,215.782 1458.789,215.782 1462.589,185.377 "/>
<polygon fill="#BBBBBB" points="1500.587,249.979 1500.587,141.953 1549.99,141.953 1549.99,162.039 1521.759,162.039
	1521.759,185.377 1546.737,185.377 1546.737,205.469 1521.759,205.469 1521.759,229.895 1549.99,229.895 1549.99,249.979 "/>
<path fill="#BBBBBB" d="M1583.649,218.502h-17.373l-1.627-76.01h20.634L1583.649,218.502z M1565.188,228.268h19.548v21.711h-19.548
	V228.268z"/>
<path fill="#FFFFFF" d="M1145.541,188.637c-0.541,0-1.08,0-1.628-0.539l-7.061-5.974c-1.079-0.54-1.079-2.173-0.538-2.714
	c3.261-4.346,4.887-9.771,4.887-15.745c0-5.974-1.626-11.399-4.887-15.746c-0.541-1.079-0.541-2.173,0.538-2.713l7.061-5.966
	c0.548-0.547,1.087-0.547,1.628-0.547c0.546,0,1.086,0.547,1.633,1.087c4.887,6.513,8.141,15.198,7.601,23.885
	c0,9.226-3.261,17.372-8.146,23.885C1146.627,188.098,1146.087,188.637,1145.541,188.637"/>
<path fill="#FFFFFF" d="M1164.547,204.382c-0.548,0-1.086,0-1.634-0.538l-8.688-7.061c-1.076-0.54-1.076-2.174-0.539-3.26
	c6.515-8.146,10.312-18.459,10.312-29.858c0-11.399-3.799-21.712-9.773-29.858c-0.538-1.087-0.538-2.166,0.549-3.26l8.688-7.053
	c0.538-0.547,1.086-0.547,1.625-0.547c0.547,0,1.087,0.547,1.626,1.087c8.688,10.859,13.574,24.979,13.574,39.631
	c0,15.207-5.427,28.771-14.113,39.631C1165.633,204.382,1165.086,204.382,1164.547,204.382"/>
<path fill="#FFFFFF" d="M1186.259,221.215c-0.54,0.54-1.088,0.54-1.626,0.54c-0.548,0-1.087,0-1.628-0.54l-10.317-8.691
	c-1.088-0.541-1.088-2.168-0.541-3.254c9.772-12.485,16.286-28.231,16.286-45.604s-5.974-33.118-15.745-45.604
	c-0.541-1.079-0.541-2.174,0.548-3.252l10.312-8.687c0.546-0.547,1.087-0.547,1.625-0.547c0.548,0,1.088,0.547,1.635,0.547
	c12.486,15.746,19.539,35.285,19.539,56.996C1206.345,185.924,1198.744,205.469,1186.259,221.215"/>
</svg>
