<?xml version="1.0" encoding="utf-8"?>
<!-- Generator: Adobe Illustrator 16.0.0, SVG Export Plug-In . SVG Version: 6.00 Build 0)  -->
<!DOCTYPE svg PUBLIC "-//W3C//DTD SVG 1.1//EN" "http://www.w3.org/Graphics/SVG/1.1/DTD/svg11.dtd">
<svg version="1.1" id="Layer_1" xmlns="http://www.w3.org/2000/svg" xmlns:xlink="http://www.w3.org/1999/xlink" x="0px" y="0px"
	 width="1600px" height="320px" viewBox="0 0 1600 320" enable-background="new 0 0 1600 320" xml:space="preserve">
<g>
	<path fill="#FFFFFF" d="M69.312,88.619H30.737c-2.774,0-4.792-2.268-4.792-4.799V63.146c0-2.519,2.018-4.787,4.792-4.787h110.189
		c2.775,0,4.787,2.269,4.787,4.787V83.82c0,2.531-2.012,4.799-4.787,4.799h-38.58v141.463c0,2.508-2.268,4.786-4.786,4.786H74.104
		c-2.519,0-4.792-2.278-4.792-4.786V88.619z"/>
	<path fill="#FFFFFF" d="M171.944,63.146c0-2.519,2.018-4.787,4.793-4.787h102.621c2.775,0,4.793,2.269,4.793,4.787V83.82
		c0,2.531-2.018,4.799-4.793,4.799h-74.635v41.35h62.287c2.519,0,4.786,2.269,4.786,4.787v20.937c0,2.77-2.268,4.787-4.786,4.787
		h-62.287v44.13h74.635c2.775,0,4.793,2.268,4.793,4.786v20.687c0,2.508-2.018,4.775-4.793,4.775H176.737
		c-2.775,0-4.793-2.268-4.793-4.775V63.146z"/>
	<path fill="#FFFFFF" d="M320.219,63.146c0-2.519,2.018-4.787,4.786-4.787h23.199c2.524,0,4.793,2.269,4.793,4.787v141.463h64.298
		c2.775,0,4.793,2.268,4.793,4.786v20.687c0,2.508-2.018,4.775-4.793,4.775h-92.29c-2.769,0-4.786-2.268-4.786-4.775V63.146z"/>
	<path fill="#FFFFFF" d="M447.555,63.146c0-2.519,2.019-4.787,4.793-4.787h23.199c2.519,0,4.787,2.269,4.787,4.787v141.463h64.298
		c2.781,0,4.793,2.268,4.793,4.786v20.687c0,2.508-2.012,4.775-4.793,4.775h-92.284c-2.774,0-4.793-2.268-4.793-4.775V63.146z"/>
	<path fill="#FFFFFF" d="M574.897,63.146c0-2.519,2.018-4.787,4.535-4.787h59.763c48.667,0,88.506,39.582,88.506,87.999
		c0,48.917-39.839,88.51-88.506,88.51h-59.763c-2.518,0-4.535-2.278-4.535-4.797V63.146z M636.17,204.097
		c32.784,0,56.736-24.711,56.736-57.738c0-32.779-23.952-57.488-56.736-57.488h-28.744v115.227H636.17z"/>
	<path fill="#FFFFFF" d="M758.469,63.146c0-2.519,2.273-4.787,4.793-4.787h23.951c2.774,0,4.792,2.269,4.792,4.787V166.28
		c0,21.427,14.634,38.329,36.562,38.329c21.939,0,36.814-16.902,36.814-38.078V63.146c0-2.519,2.018-4.787,4.787-4.787h23.957
		c2.529,0,4.785,2.269,4.785,4.787v104.9c0,38.316-30.498,69.342-70.344,69.342c-39.588,0-70.098-31.025-70.098-69.342V63.146z"/>
	<path fill="#FFFFFF" d="M931.953,210.149l9.082-15.627c2.02-3.532,6.305-3.532,8.572-1.766
		c1.264,0.752,21.678,15.625,38.066,15.625c13.119,0,22.955-8.571,22.955-19.41c0-12.855-10.85-21.689-32.027-30.259
		c-23.695-9.585-47.4-24.71-47.4-54.468c0-22.441,16.639-48.404,56.736-48.404c25.723,0,45.395,13.106,50.432,16.891
		c2.506,1.515,3.271,5.801,1.504,8.319l-9.574,14.372c-2.027,3.032-5.799,5.05-8.82,3.032c-2.029-1.266-21.178-13.871-35.057-13.871
		c-14.375,0-22.182,9.586-22.182,17.644c0,11.865,9.324,19.923,29.748,28.242c24.459,9.837,52.701,24.459,52.701,56.985
		c0,25.976-22.441,49.923-58.002,49.923c-31.762,0-50.434-14.862-55.471-19.662C930.939,215.449,929.686,214.195,931.953,210.149"/>
	<rect x="1135.234" y="6.308" fill="#FFFFFF" width="12.549" height="307.385"/>
	<path fill="#DD6B26" d="M1540.285,66.816h-262.014c-18.645,0-33.77,15.124-33.77,33.77v50.855
		c0,166.811-62.959,84.591,84.842,84.591h210.941c18.645,0,33.77-15.125,33.77-33.781V100.586
		C1574.055,81.94,1558.93,66.816,1540.285,66.816"/>
	<polygon fill="#FFFFFF" points="1278.547,99.139 1293.453,99.139 1293.453,186.26 1341.436,186.26 1341.436,200.757 
		1278.547,200.757 	"/>
	<path fill="#FFFFFF" d="M1357.096,99.139h14.076v14.486h-14.076V99.139z M1357.096,128.407h14.076v72.339h-14.076V128.407z"/>
	<polygon fill="#FFFFFF" points="1380.939,128.407 1395.846,128.407 1412.293,179.112 1412.578,179.112 1428.957,128.407 
		1443.932,128.407 1418.242,200.757 1406.641,200.757 	"/>
	<path fill="#FFFFFF" d="M1464.016,170.074c0,5.813,1.605,10.236,4.852,13.257c3.021,3.065,6.979,4.604,11.889,4.604
		c5.723,0,10.84-2.349,15.34-7.045l10.189,8.994c-7.145,7.898-15.555,11.796-25.232,11.704c-3.68,0-7.293-0.559-10.795-1.675
		c-1.754-0.604-3.475-1.413-5.127-2.438c-1.756-0.879-3.396-1.974-4.936-3.271c-2.963-2.689-5.381-6.462-7.227-11.295
		c-2.016-4.64-3.02-10.68-3.02-18.109c0-7.17,0.867-13.12,2.621-17.85c1.756-4.832,4.012-8.65,6.748-11.431
		c2.793-2.839,5.914-4.878,9.379-6.143c3.42-1.255,6.793-1.882,10.133-1.882c8.002,0.103,14.77,2.815,20.311,8.161
		c5.619,5.437,8.467,12.925,8.57,22.452v11.966H1464.016z M1493.648,158.108c-0.195-5.652-1.654-9.927-4.4-12.822
		c-2.701-2.758-6.188-4.137-10.418-4.137c-4.252,0-7.729,1.379-10.428,4.137c-2.656,2.896-4.127,7.17-4.387,12.822H1493.648z"/>
	<path fill="#FFFFFF" d="M1524.66,99.139h17.688l-5.402,76.511h-7.021L1524.66,99.139z M1526.539,186.26h14.086v14.497h-14.086
		V186.26z"/>
</g>
</svg>
