<?xml version="1.0" encoding="utf-8"?>
<!-- Generator: Adobe Illustrator 16.0.0, SVG Export Plug-In . SVG Version: 6.00 Build 0)  -->
<!DOCTYPE svg PUBLIC "-//W3C//DTD SVG 1.1//EN" "http://www.w3.org/Graphics/SVG/1.1/DTD/svg11.dtd">
<svg version="1.1" id="Layer_1" xmlns="http://www.w3.org/2000/svg" xmlns:xlink="http://www.w3.org/1999/xlink" x="0px" y="0px"
	 width="640px" height="640px" viewBox="0 0 640 640" enable-background="new 0 0 640 640" xml:space="preserve">
<g>
	<g>
		<path fill="#BBBBBB" d="M315.624,87.954c22.317,0,43.892,3.167,64.31,9.061L316.874,0l-56.808,94.681
			C277.866,90.296,296.47,87.954,315.624,87.954z"/>
		<path fill="#BBBBBB" d="M324.375,552.047c-22.316,0-43.892-3.168-64.31-9.061L323.125,640l56.809-94.682
			C362.133,549.703,343.529,552.047,324.375,552.047z"/>
	</g>
	<g>
		<path fill="#BBBBBB" d="M480.986,152.825c15.78,15.78,28.797,33.275,39.066,51.88l24.01-113.188l-107.119,26.78
			C452.632,127.783,467.442,139.281,480.986,152.825z"/>
		<path fill="#BBBBBB" d="M159.012,487.176c-15.78-15.78-28.797-33.274-39.067-51.881L95.936,548.484l107.119-26.779
			C187.368,512.217,172.556,500.72,159.012,487.176z"/>
	</g>
	<g>
		<path fill="#BBBBBB" d="M552.047,315.624c0,22.317-3.167,43.892-9.063,64.31L640,316.875l-94.682-56.809
			C549.701,277.867,552.047,296.47,552.047,315.624z"/>
		<path fill="#BBBBBB" d="M87.954,324.376c0-22.317,3.167-43.892,9.061-64.31L0,323.126l94.681,56.808
			C90.296,362.134,87.954,343.529,87.954,324.376z"/>
	</g>
	<g>
		<path fill="#BBBBBB" d="M487.175,480.988c-15.778,15.78-33.275,28.794-51.882,39.064l113.189,24.012l-26.779-107.119
			C512.216,452.634,500.721,467.444,487.175,480.988z"/>
		<path fill="#BBBBBB" d="M152.824,159.013c15.78-15.78,33.275-28.797,51.88-39.067L91.516,95.937l26.78,107.119
			C127.782,187.369,139.28,172.557,152.824,159.013z"/>
	</g>
	<path fill="#BBBBBB" d="M315.624,128.579c-105.719,0-191.421,85.702-191.421,191.421c0,105.719,85.702,191.422,191.421,191.422
		c105.718,0,191.419-85.703,191.419-191.422C507.043,214.281,421.342,128.579,315.624,128.579z M304.759,362.48
		c0,11.295-1.581,20.637-4.733,28.023c-3.156,7.391-7.39,13.243-12.703,17.559c-5.316,4.32-11.376,7.225-18.184,8.719
		c-6.81,1.496-13.867,2.243-21.171,2.243c-7.309,0-14.366-0.669-21.172-1.994c-6.811-1.327-12.871-4.022-18.184-8.095
		c-5.316-4.066-9.55-9.838-12.703-17.312c-3.157-7.471-4.733-17.186-4.733-29.143V238.438h35.868V362.48
		c0,4.484,0.289,8.594,0.873,12.33c0.58,3.736,1.658,6.974,3.237,9.713c1.576,2.74,3.736,4.9,6.477,6.477
		c2.739,1.581,6.185,2.368,10.337,2.368c4.315,0,7.804-0.787,10.461-2.368c2.655-1.576,4.772-3.736,6.352-6.477
		c1.576-2.739,2.654-5.977,3.238-9.713c0.579-3.736,0.872-7.846,0.872-12.33V238.438h35.868V362.48z M402.647,416.283h-46.08
		l-40.85-177.846h38.358l25.157,131.516h0.747l26.403-131.516h37.113L402.647,416.283z"/>
</g>
</svg>
