<?xml version="1.0" encoding="utf-8"?>
<!-- Generator: Adobe Illustrator 16.0.0, SVG Export Plug-In . SVG Version: 6.00 Build 0)  -->
<!DOCTYPE svg PUBLIC "-//W3C//DTD SVG 1.1//EN" "http://www.w3.org/Graphics/SVG/1.1/DTD/svg11.dtd">
<svg version="1.1" id="Layer_1" xmlns="http://www.w3.org/2000/svg" xmlns:xlink="http://www.w3.org/1999/xlink" x="0px" y="0px"
	 width="640px" height="640px" viewBox="0 0 640 640" enable-background="new 0 0 640 640" xml:space="preserve">
<g>

		<path id="path5606" sodipodi:nodetypes="ccscszczczczs" inkscape:connector-curvature="0" fill="#BBBBBB" stroke="#BBBBBB" stroke-width="2.5761" d="
		M84.707,342.989c22.966,6.055,53.059,0,53.059,0c13.638,23.617,58.582,39.328,89.935,39.328c51.12,0,103.553-16.639,115.644-39.328
		c0,0,211.719,16.639,255.658,0c63.971-24.219,44.071-99.96,1.513-125.548c-42.562-25.592-98.32-7.564-98.32-7.564
		s-0.169-52.154-60.362-77.052c-60.187-24.896-111.057,30.164-111.057,30.164S292.426,55.568,184.536,69.2
		C76.853,82.813,80.164,173.575,80.164,173.575C36.058,180.938,0,218.755,0,258.282C0,297.809,46.09,332.815,84.707,342.989z"/>
	<g>
		<path fill="#BBBBBB" d="M187.387,486.204c0,27.462-22.066,49.727-49.283,49.727c-27.218,0-49.286-22.265-49.286-49.727
			c0-27.461,30.802-49.726,49.286-99.449C156.584,436.479,187.387,458.743,187.387,486.204z"/>
		<path fill="#BBBBBB" d="M358.979,522.27c0,27.462-22.065,49.727-49.283,49.727s-49.286-22.265-49.286-49.727
			c0-27.461,30.803-49.726,49.286-99.449C328.177,472.544,358.979,494.809,358.979,522.27z"/>
		<path fill="#BBBBBB" d="M530.572,488.78c0,27.462-22.065,49.727-49.283,49.727c-27.217,0-49.285-22.265-49.285-49.727
			s30.803-49.726,49.285-99.449C499.771,439.055,530.572,461.318,530.572,488.78z"/>
	</g>
</g>
</svg>
