<?xml version="1.0" encoding="utf-8"?>
<!-- Generator: Adobe Illustrator 16.0.0, SVG Export Plug-In . SVG Version: 6.00 Build 0)  -->
<!DOCTYPE svg PUBLIC "-//W3C//DTD SVG 1.1//EN" "http://www.w3.org/Graphics/SVG/1.1/DTD/svg11.dtd">
<svg version="1.1" id="Layer_1" xmlns="http://www.w3.org/2000/svg" xmlns:xlink="http://www.w3.org/1999/xlink" x="0px" y="0px"
	 width="640px" height="640px" viewBox="0 0 640 640" enable-background="new 0 0 640 640" xml:space="preserve">
<g id="g4583" transform="translate(775.98696,527.23642)">
	<g opacity="0.6" enable-background="new    ">
		<path fill="#BBBBBB" d="M-161.164-201.76h-429.818c-30.32,0-59.927-0.759-88.798-9.923
			c-33.603-10.668-61.362-31.524-78.167-58.727c-18.413-29.815-23.057-67.135-12.427-99.836
			c10.737-33.012,36.582-60.435,69.135-73.36c21.243-8.44,45.31-10.666,67.764-6.258c22.461,4.419,43.897,15.582,60.375,31.433
			c16.475,15.849,28.459,36.834,33.745,59.09c5.276,22.248,3.993,46.379-3.611,67.957c-4.624,13.116-19.003,20-32.114,15.376
			c-13.115-4.621-19.999-19-15.378-32.113c4.433-12.578,5.183-26.639,2.111-39.594c-3.08-12.964-10.062-25.194-19.661-34.426
			c-9.6-9.236-22.092-15.739-35.174-18.313c-13.073-2.568-27.093-1.271-39.47,3.646c-18.51,7.35-33.772,23.494-39.834,42.133
			c-6.024,18.527-3.195,40.678,7.382,57.805c10.324,16.713,28.753,30.27,50.56,37.193c22.034,6.994,46.351,7.563,73.562,7.563
			h429.818c13.903,0,25.177,11.272,25.177,25.177C-135.987-213.032-147.26-201.76-161.164-201.76z"/>
	</g>
	<g opacity="0.6" enable-background="new    ">
		<path fill="#BBBBBB" d="M-531.307,59.77c-22.186,0-44.381-6.562-62.769-19.032c-26.142-17.737-44.032-47.045-47.862-78.398
			c-2.674-21.874,1.421-44.947,11.533-64.967c9.686-19.176,24.75-35.72,43.565-47.844c16.595-10.686,36.098-17.973,57.976-21.663
			c18.422-3.116,36.331-3.37,56.153-3.37h311.547c13.903,0,25.177,11.272,25.177,25.177c0,13.905-11.273,25.178-25.177,25.178
			h-311.547c-18.132,0-33.163,0.196-47.765,2.666c-15.126,2.552-28.276,7.377-39.097,14.344
			c-11.283,7.271-20.236,17.029-25.885,28.214c-5.668,11.223-7.976,24.064-6.497,36.158c2.093,17.132,11.867,33.146,26.147,42.833
			c14.278,9.683,32.77,12.844,49.463,8.458c16.686-4.394,31.228-16.25,38.891-31.712c7.662-15.458,8.289-34.206,1.678-50.151
			c-5.324-12.846,0.772-27.575,13.616-32.899c12.851-5.326,27.576,0.772,32.899,13.616c12.098,29.185,10.947,63.499-3.077,91.796
			c-14.028,28.302-40.643,50.003-71.194,58.047C-512.595,58.602-521.953,59.768-531.307,59.77z"/>
	</g>
	<g opacity="0.6" enable-background="new    ">
		<path fill="#BBBBBB" d="M-161.164-282.53h-207.7c-24.854,0-49.14-0.751-72.997-9.823c-13.611-5.187-25.606-12.489-35.668-21.712
			c-10.918-10.005-19.491-22.348-24.795-35.694c-5.553-13.96-7.622-29.156-5.979-43.936c1.67-14.988,7.129-29.424,15.789-41.752
			c8.594-12.238,20.26-22.266,33.736-29c13.172-6.597,28.042-10.022,42.957-9.785c25.819,0.336,50.715,11.388,68.294,30.322
			c17.565,18.927,26.742,44.559,25.184,70.328c-0.841,13.878-12.767,24.422-26.652,23.611c-13.879-0.839-24.45-12.773-23.61-26.652
			c0.722-11.926-3.699-24.273-11.825-33.03c-8.127-8.753-20.111-14.073-32.052-14.229c-6.953-0.083-13.746,1.454-19.768,4.469
			c-6.047,3.021-11.247,7.481-15.057,12.908c-3.812,5.426-6.214,11.781-6.95,18.378c-0.734,6.601,0.209,13.437,2.726,19.764
			c2.519,6.337,6.675,12.274,12.025,17.176c5.353,4.906,11.934,8.867,19.56,11.772c15.879,6.039,34.341,6.53,55.084,6.53h207.7
			c13.903,0,25.177,11.271,25.177,25.177S-147.26-282.53-161.164-282.53z"/>
	</g>
	<path fill="#BBBBBB" d="M-161.164-201.76h-429.818c-30.32,0-59.927-0.759-88.798-9.923c-33.603-10.668-61.362-31.524-78.167-58.727
		c-18.413-29.815-23.057-67.135-12.427-99.836c10.737-33.012,36.582-60.435,69.135-73.36c21.243-8.44,45.31-10.666,67.764-6.258
		c22.461,4.419,43.897,15.582,60.375,31.433c16.475,15.849,28.459,36.834,33.745,59.09c5.276,22.248,3.993,46.379-3.611,67.957
		c-4.624,13.116-19.003,20-32.114,15.376c-13.115-4.621-19.999-19-15.378-32.113c4.433-12.578,5.183-26.639,2.111-39.594
		c-3.08-12.964-10.062-25.194-19.661-34.426c-9.6-9.236-22.092-15.739-35.174-18.313c-13.073-2.568-27.093-1.271-39.47,3.646
		c-18.51,7.35-33.772,23.494-39.834,42.133c-6.024,18.527-3.195,40.678,7.382,57.805c10.324,16.713,28.753,30.27,50.56,37.193
		c22.034,6.994,46.351,7.563,73.562,7.563h429.818c13.903,0,25.177,11.272,25.177,25.177
		C-135.987-213.032-147.26-201.76-161.164-201.76z"/>
	<path fill="#BBBBBB" d="M-531.307,59.77c-22.186,0-44.381-6.562-62.769-19.032c-26.142-17.737-44.032-47.045-47.862-78.398
		c-2.674-21.874,1.421-44.947,11.533-64.967c9.686-19.176,24.75-35.72,43.565-47.844c16.595-10.686,36.098-17.973,57.976-21.663
		c18.422-3.116,36.331-3.37,56.153-3.37h311.547c13.903,0,25.177,11.272,25.177,25.177c0,13.905-11.273,25.178-25.177,25.178
		h-311.547c-18.132,0-33.163,0.196-47.765,2.666c-15.126,2.552-28.276,7.377-39.097,14.344
		c-11.283,7.271-20.236,17.029-25.885,28.214c-5.668,11.223-7.976,24.064-6.497,36.158c2.093,17.132,11.867,33.146,26.147,42.833
		c14.278,9.683,32.77,12.844,49.463,8.458c16.686-4.394,31.228-16.25,38.891-31.712c7.662-15.458,8.289-34.206,1.678-50.151
		c-5.324-12.846,0.772-27.575,13.616-32.899c12.851-5.326,27.576,0.772,32.899,13.616c12.098,29.185,10.947,63.499-3.077,91.796
		c-14.028,28.302-40.643,50.003-71.194,58.047C-512.595,58.602-521.953,59.768-531.307,59.77z"/>
	<path fill="#BBBBBB" d="M-161.164-282.53h-207.7c-24.854,0-49.14-0.751-72.997-9.823c-13.611-5.187-25.606-12.489-35.668-21.712
		c-10.918-10.005-19.491-22.348-24.795-35.694c-5.553-13.96-7.622-29.156-5.979-43.936c1.67-14.988,7.129-29.424,15.789-41.752
		c8.594-12.238,20.26-22.266,33.736-29c13.172-6.597,28.042-10.022,42.957-9.785c25.819,0.336,50.715,11.388,68.294,30.322
		c17.565,18.927,26.742,44.559,25.184,70.328c-0.841,13.878-12.767,24.422-26.652,23.611c-13.879-0.839-24.45-12.773-23.61-26.652
		c0.722-11.926-3.699-24.273-11.825-33.03c-8.127-8.753-20.111-14.073-32.052-14.229c-6.953-0.083-13.746,1.454-19.768,4.469
		c-6.047,3.021-11.247,7.481-15.057,12.908c-3.812,5.426-6.214,11.781-6.95,18.378c-0.734,6.601,0.209,13.437,2.726,19.764
		c2.519,6.337,6.675,12.274,12.025,17.176c5.353,4.906,11.934,8.867,19.56,11.772c15.879,6.039,34.341,6.53,55.084,6.53h207.7
		c13.903,0,25.177,11.271,25.177,25.177S-147.26-282.53-161.164-282.53z"/>
</g>
</svg>
