<?xml version="1.0" encoding="utf-8"?>
<!-- Generator: Adobe Illustrator 16.0.0, SVG Export Plug-In . SVG Version: 6.00 Build 0)  -->
<!DOCTYPE svg PUBLIC "-//W3C//DTD SVG 1.1//EN" "http://www.w3.org/Graphics/SVG/1.1/DTD/svg11.dtd">
<svg version="1.1" id="Layer_1" xmlns="http://www.w3.org/2000/svg" xmlns:xlink="http://www.w3.org/1999/xlink" x="0px" y="0px"
	 width="640px" height="640px" viewBox="0 0 640 640" enable-background="new 0 0 640 640" xml:space="preserve">
<g>
	<polygon fill="#BBBBBB" points="286.193,41.579 251.382,277.267 338.43,260.634 287.178,448.315 423.719,201.756 312.64,223.752
		376.076,41.579 	"/>
	<path fill="#BBBBBB" d="M115.509,394.68c-2.534,0-5.093-0.752-7.323-2.322l-34.41-24.215c-5.756-4.05-7.139-12-3.088-17.756
		c4.05-5.754,12-7.138,17.756-3.088l34.41,24.214c5.756,4.05,7.139,12,3.088,17.758C123.461,392.795,119.516,394.68,115.509,394.68z
		"/>
	<path fill="#BBBBBB" d="M222.579,333.51c-4.926,0-9.617-2.872-11.7-7.68l-16.567-38.233c-2.798-6.46,0.168-13.963,6.626-16.763
		c6.463-2.792,13.963,0.167,16.762,6.627l16.568,38.232c2.798,6.46-0.168,13.963-6.626,16.763
		C225.989,333.17,224.271,333.51,222.579,333.51z"/>
	<path fill="#BBBBBB" d="M525.684,394.68c-4.008,0-7.95-1.885-10.432-5.409c-4.051-5.758-2.669-13.708,3.086-17.758l34.41-24.214
		c5.758-4.052,13.707-2.667,17.758,3.088c4.05,5.756,2.668,13.706-3.087,17.756l-34.409,24.215
		C530.779,393.928,528.217,394.68,525.684,394.68z"/>
	<path fill="#BBBBBB" d="M418.614,333.51c-1.691,0-3.41-0.339-5.062-1.054c-6.458-2.8-9.424-10.303-6.626-16.763l16.567-38.232
		c2.799-6.457,10.299-9.424,16.762-6.627c6.459,2.8,9.424,10.303,6.627,16.763l-16.568,38.233
		C428.23,330.636,423.54,333.51,418.614,333.51z"/>
	<path fill="#BBBBBB" d="M320.839,531.045c-1.438,0-2.882-0.483-4.073-1.477c-2.705-2.25-3.072-6.268-0.82-8.973L477.23,326.88
		c2.254-2.704,6.271-3.069,8.975-0.82c2.705,2.253,3.072,6.271,0.82,8.975L325.74,528.75
		C324.48,530.264,322.666,531.045,320.839,531.045z"/>
	<g>
		<circle fill="#BBBBBB" cx="320.844" cy="526.087" r="16.707"/>
		<path fill="#BBBBBB" d="M320.844,549.166c-12.726,0-23.079-10.353-23.079-23.079c0-12.728,10.354-23.08,23.079-23.08
			c12.726,0,23.078,10.353,23.078,23.08C343.922,538.813,333.57,549.166,320.844,549.166z M320.844,515.752
			c-5.699,0-10.334,4.637-10.334,10.335c0,5.697,4.636,10.334,10.334,10.334c5.698,0,10.333-4.637,10.333-10.334
			C331.178,520.389,326.542,515.752,320.844,515.752z"/>
	</g>
	<path fill="#BBBBBB" d="M631.838,359.159c-47.286-60.703-109.547-105.184-179.616-129.956l-12.538,22.64
		c63.122,21.496,119.653,60,163.696,112.639L319.998,567.088L36.618,364.481c47.95-57.308,110.711-97.844,180.655-117.934
		l4.064-27.522c-83.706,21.396-158.466,69.9-213.176,140.134L0,369.634l319.998,228.787L640,369.634L631.838,359.159z"/>
</g>
</svg>
