<?xml version="1.0" encoding="utf-8"?>
<!-- Generator: Adobe Illustrator 16.0.0, SVG Export Plug-In . SVG Version: 6.00 Build 0)  -->
<!DOCTYPE svg PUBLIC "-//W3C//DTD SVG 1.1//EN" "http://www.w3.org/Graphics/SVG/1.1/DTD/svg11.dtd">
<svg version="1.1" id="Layer_1" xmlns="http://www.w3.org/2000/svg" xmlns:xlink="http://www.w3.org/1999/xlink" x="0px" y="0px"
	 width="640px" height="640px" viewBox="0 0 640 640" enable-background="new 0 0 640 640" xml:space="preserve">
<g>
	<g>
		<path fill="#BBBBBB" d="M315.624,87.954c22.317,0,43.892,3.167,64.31,9.061L316.874,0l-56.808,94.681
			C277.866,90.296,296.47,87.954,315.624,87.954z"/>
		<path fill="#BBBBBB" d="M324.375,552.047c-22.316,0-43.892-3.168-64.31-9.061L323.125,640l56.809-94.682
			C362.133,549.703,343.529,552.047,324.375,552.047z"/>
	</g>
	<g>
		<path fill="#BBBBBB" d="M480.986,152.825c15.78,15.78,28.797,33.275,39.066,51.88l24.01-113.188l-107.119,26.78
			C452.632,127.783,467.442,139.281,480.986,152.825z"/>
		<path fill="#BBBBBB" d="M159.012,487.176c-15.78-15.78-28.797-33.274-39.067-51.881L95.936,548.484l107.119-26.779
			C187.368,512.217,172.556,500.72,159.012,487.176z"/>
	</g>
	<g>
		<path fill="#BBBBBB" d="M552.047,315.624c0,22.317-3.167,43.892-9.063,64.31L640,316.875l-94.682-56.809
			C549.701,277.867,552.047,296.47,552.047,315.624z"/>
		<path fill="#BBBBBB" d="M87.954,324.376c0-22.317,3.167-43.892,9.061-64.31L0,323.126l94.681,56.808
			C90.296,362.134,87.954,343.529,87.954,324.376z"/>
	</g>
	<g>
		<path fill="#BBBBBB" d="M487.175,480.988c-15.778,15.78-33.275,28.794-51.882,39.064l113.189,24.012l-26.779-107.119
			C512.216,452.634,500.721,467.444,487.175,480.988z"/>
		<path fill="#BBBBBB" d="M152.824,159.013c15.78-15.78,33.275-28.797,51.88-39.067L91.516,95.937l26.78,107.119
			C127.782,187.369,139.28,172.557,152.824,159.013z"/>
	</g>
	<path fill="#BBBBBB" d="M315.624,128.579c-105.719,0-191.421,85.702-191.421,191.421c0,105.719,85.702,191.422,191.421,191.422
		c105.718,0,191.419-85.703,191.419-191.422C507.043,214.281,421.342,128.579,315.624,128.579z M315.623,466.045
		C234.965,466.043,169.58,400.658,169.58,320c0-80.657,65.385-146.044,146.042-146.044V466.045z"/>
</g>
</svg>
